<svg xmlns="http://www.w3.org/2000/svg" xmlns:xlink="http://www.w3.org/1999/xlink">
  <symbol id="thumbtack" viewBox="0 0 384 512" fill="currentColor">
    <path d="M32 32C32 14.3 46.3 0 64 0L320 0c17.7 0 32 14.3 32 32s-14.3 32-32 32l-12.2 0 5.3 85.1c25.4 11.2 47 29.1 62.4 52.1c19.9 29.8 27.1 65.8 20.1 100.5c-3.7 18.5-20.1 31.3-39 31.3L208 333l0 147c0 17.7-14.3 32-32 32s-32-14.3-32-32l0-147L16.6 333C-2.3 333-18.7 320.2-22.4 301.7c-7-34.7 .2-70.7 20.1-100.5c15.4-23 37-40.9 62.4-52.1L65.4 64 64 64C46.3 64 32 49.7 32 32z"/>
  </symbol>
  <symbol id="papers" viewBox="0 0 24 24" fill="none">
    <path d="M7 7H3.6C3.26863 7 3 7.26863 3 7.6V20.4C3 20.7314 3.26863 21 3.6 21H16.4C16.7314 21 17 20.7314 17 20.4V17" stroke="currentColor" stroke-width="1.5" stroke-linecap="round" stroke-linejoin="round"/>
    <path d="M7 3.6V16.4C7 16.7314 7.26863 17 7.6 17H20.4C20.7314 17 21 16.7314 21 16.4V3.6C21 3.26863 20.7314 3 20.4 3H7.6C7.26863 3 7 3.26863 7 3.6Z" stroke="currentColor" stroke-width="1.5" stroke-linecap="round" stroke-linejoin="round"/>
  </symbol>
  <symbol id="bell-filled" viewBox="0 0 24 24" fill="currentColor">
    <path d="M12 2C10.4087 2 8.88258 2.63214 7.75736 3.75736C6.63214 4.88258 6 6.4087 6 8C6 11.0902 5.22047 13.206 4.34967 14.6054C3.61513 15.7859 3.24786 16.3761 3.26133 16.5408C3.27624 16.7231 3.31486 16.7926 3.46178 16.9016C3.59447 17 4.19259 17 5.38884 17H18.6112C19.8074 17 20.4055 17 20.5382 16.9016C20.6851 16.7926 20.7238 16.7231 20.7387 16.5408C20.7521 16.3761 20.3849 15.7859 19.6503 14.6054C18.7795 13.206 18 11.0902 18 8C18 6.4087 17.3679 4.88258 16.2427 3.75736C15.1174 2.63214 13.5913 2 12 2Z"/>
    <path d="M9.35419 21C10.0593 21.6224 10.9856 22 12 22C13.0145 22 13.9407 21.6224 14.6458 21H9.35419Z"/>
  </symbol>
  <symbol id="bell" viewBox="0 0 24 24" fill="none">
    <path d="M9.35419 21C10.0593 21.6224 10.9856 22 12 22C13.0145 22 13.9407 21.6224 14.6458 21M18 8C18 6.4087 17.3679 4.88258 16.2427 3.75736C15.1174 2.63214 13.5913 2 12 2C10.4087 2 8.88258 2.63214 7.75736 3.75736C6.63214 4.88258 6 6.4087 6 8C6 11.0902 5.22047 13.206 4.34967 14.6054C3.61513 15.7859 3.24786 16.3761 3.26133 16.5408C3.27624 16.7231 3.31486 16.7926 3.46178 16.9016C3.59447 17 4.19259 17 5.38884 17H18.6112C19.8074 17 20.4055 17 20.5382 16.9016C20.6851 16.7926 20.7238 16.7231 20.7387 16.5408C20.7521 16.3761 20.3849 15.7859 19.6503 14.6054C18.7795 13.206 18 11.0902 18 8Z" stroke="currentColor" stroke-width="2" stroke-linecap="round" stroke-linejoin="round"/>
  </symbol>
  <symbol id="volume" viewBox="0 0 24 24" fill="none">
    <path d="M11 4.702a.705.705 0 0 0-1.203-.498L6.413 7.587A1.4 1.4 0 0 1 5.416 8H3a1 1 0 0 0-1 1v6a1 1 0 0 0 1 1h2.416a1.4 1.4 0 0 1 .997.413l3.383 3.384A.705.705 0 0 0 11 19.298z" stroke="currentColor" stroke-width="2" stroke-linecap="round" stroke-linejoin="round"/>
    <path d="M16 9a5 5 0 0 1 0 6" stroke="currentColor" stroke-width="2" stroke-linecap="round" stroke-linejoin="round"/>
    <path d="M19.364 18.364a9 9 0 0 0 0-12.728" stroke="currentColor" stroke-width="2" stroke-linecap="round" stroke-linejoin="round"/>
  </symbol>
  <symbol id="volume-mute" viewBox="0 0 24 24" fill="none">
    <path d="M11 4.702a.705.705 0 0 0-1.203-.498L6.413 7.587A1.4 1.4 0 0 1 5.416 8H3a1 1 0 0 0-1 1v6a1 1 0 0 0 1 1h2.416a1.4 1.4 0 0 1 .997.413l3.383 3.384A.705.705 0 0 0 11 19.298z" stroke="currentColor" stroke-width="2" stroke-linecap="round" stroke-linejoin="round"/>
    <path d="M16 9l6 6" stroke="currentColor" stroke-width="2" stroke-linecap="round" stroke-linejoin="round"/>
    <path d="M22 9l-6 6" stroke="currentColor" stroke-width="2" stroke-linecap="round" stroke-linejoin="round"/>
  </symbol>
  <symbol id="bent-bar" viewBox="0 0 23 18" fill="none">
    <path d="M1.25 1.25L1.25 8.25C1.25 12.6683 4.83172 16.25 9.25 16.25L21.25 16.25" stroke="currentColor" stroke-width="2.5" stroke-linecap="round"/>
  </symbol>
  <symbol id="link-external" viewBox="0 0 16 16" fill="none">
    <path d="M14 6.00001L14 2.00001M14 2.00001H9.99999M14 2.00001L8 8M6.66667 2H5.2C4.0799 2 3.51984 2 3.09202 2.21799C2.71569 2.40973 2.40973 2.71569 2.21799 3.09202C2 3.51984 2 4.07989 2 5.2V10.8C2 11.9201 2 12.4802 2.21799 12.908C2.40973 13.2843 2.71569 13.5903 3.09202 13.782C3.51984 14 4.07989 14 5.2 14H10.8C11.9201 14 12.4802 14 12.908 13.782C13.2843 13.5903 13.5903 13.2843 13.782 12.908C14 12.4802 14 11.9201 14 10.8V9.33333" stroke="currentColor" stroke-width="1.33333" stroke-linecap="round" stroke-linejoin="round"/>
  </symbol>
  <symbol id="profile" viewBox="0 0 20 20" fill="none">
    <path d="M6.67419 5.41683C6.67419 3.5785 8.16919 2.0835 10.0075 2.0835C11.8459 2.0835 13.3409 3.5785 13.3409 5.41683C13.3409 7.25516 11.8459 8.75016 10.0075 8.75016C8.16919 8.75016 6.67419 7.25516 6.67419 5.41683ZM11.6667 10.4168H8.33333C4.95 10.4168 3.75 12.8944 3.75 15.016C3.75 16.9135 4.75921 17.9168 6.66921 17.9168H13.3308C15.2408 17.9168 16.25 16.9135 16.25 15.016C16.25 12.8944 15.05 10.4168 11.6667 10.4168Z" fill="currentColor"/>
  </symbol>
  <symbol id="key" viewBox="0 0 20 20" fill="none">
    <path d="M12.5 2.5C9.74167 2.5 7.5 4.74167 7.5 7.5C7.5 8.00833 7.57501 8.49166 7.71667 8.94999L2.5 14.1667V17.5H5.83333V15H8.33333L11.05 12.2833C11.5083 12.425 11.9917 12.5 12.5 12.5C15.2583 12.5 17.5 10.2583 17.5 7.5C17.5 4.74167 15.2583 2.5 12.5 2.5ZM13.35 7.70833C12.7758 7.70833 12.3041 7.24167 12.3041 6.66667C12.3041 6.09167 12.7667 5.625 13.3417 5.625H13.35C13.925 5.625 14.3917 6.09167 14.3917 6.66667C14.3917 7.24167 13.925 7.70833 13.35 7.70833Z" fill="currentColor"/>
  </symbol>
  <symbol id="eye-off" viewBox="0 0 20 20" fill="none">
    <path d="M2.5 2.5L17.5 17.5M8.24 8.24C7.93 8.56 7.74 9 7.74 9.5C7.74 10.52 8.56 11.34 9.58 11.34C10.08 11.34 10.52 11.15 10.84 10.84M12.5 12.5C11.81 12.94 10.95 13.17 10 13.17C7.11 13.17 4.68 11.17 3.33 9.5C3.99 8.68 4.84 7.91 5.83 7.34M8.5 5.17C8.99 5.06 9.49 5 10 5C12.89 5 15.32 7 16.67 8.67C16.24 9.21 15.72 9.75 15.13 10.25" stroke="currentColor" stroke-width="1.5" stroke-linecap="round" stroke-linejoin="round"/>
  </symbol>
  <symbol id="log-out" viewBox="0 0 20 20" fill="none">
    <path d="M13.125 14.1667V15C13.125 17.015 12.015 18.125 10 18.125H5C2.985 18.125 1.875 17.015 1.875 15V5C1.875 2.985 2.985 1.875 5 1.875H10C12.015 1.875 13.125 2.985 13.125 5V5.83333C13.125 6.17833 12.845 6.45833 12.5 6.45833C12.155 6.45833 11.875 6.17833 11.875 5.83333V5C11.875 3.68583 11.3142 3.125 10 3.125H5C3.68583 3.125 3.125 3.68583 3.125 5V15C3.125 16.3142 3.68583 16.875 5 16.875H10C11.3142 16.875 11.875 16.3142 11.875 15V14.1667C11.875 13.8217 12.155 13.5417 12.5 13.5417C12.845 13.5417 13.125 13.8217 13.125 14.1667ZM18.0767 10.2392C18.14 10.0867 18.14 9.91416 18.0767 9.76166C18.045 9.68499 17.9992 9.61583 17.9417 9.55833L15.4417 7.05833C15.1975 6.81417 14.8017 6.81417 14.5575 7.05833C14.3133 7.3025 14.3133 7.69834 14.5575 7.9425L15.9909 9.37584H6.66667C6.32167 9.37584 6.04167 9.65584 6.04167 10.0008C6.04167 10.3458 6.32167 10.6258 6.66667 10.6258H15.9909L14.5575 12.0592C14.3133 12.3033 14.3133 12.6992 14.5575 12.9433C14.6792 13.065 14.8392 13.1267 14.9992 13.1267C15.1592 13.1267 15.3192 13.0658 15.4408 12.9433L17.9408 10.4433C17.9992 10.3842 18.045 10.315 18.0767 10.2392Z" fill="currentColor"/>
  </symbol>
  <symbol id="badge-check" viewBox="-1 -1 19 19" fill="none">
    <path d="M6.37891 1.37793C7.55002 0.206881 9.44903 0.206843 10.6201 1.37793L10.9863 1.74512C11.1279 1.88619 11.3188 1.96477 11.5176 1.96484H12.0352C13.6913 1.96484 15.0332 3.30772 15.0332 4.96387V5.48145C15.0333 5.68057 15.1128 5.87157 15.2529 6.01172L15.6201 6.37891C16.7912 7.55001 16.7912 9.44901 15.6201 10.6201L15.2529 10.9873C15.1123 11.1289 15.0333 11.3192 15.0332 11.5176V12.0352C15.0332 13.6913 13.6913 15.0332 12.0352 15.0332H11.5176C11.3184 15.0333 11.1274 15.1129 10.9873 15.2529L10.6201 15.6201C9.44901 16.7912 7.55001 16.7912 6.37891 15.6201L6.0127 15.2539L5.89746 15.1602C5.7748 15.0784 5.63052 15.0333 5.48145 15.0332H4.96387C3.30772 15.0332 1.96484 13.6913 1.96484 12.0352V11.5176C1.96478 11.3183 1.8861 11.1274 1.74609 10.9873L1.37793 10.6201C0.206839 9.44903 0.206869 7.55001 1.37793 6.37891L1.74609 6.01172C1.88667 5.87025 1.96475 5.67986 1.96484 5.48145V4.96387C1.96484 3.3077 3.30772 1.96484 4.96387 1.96484H5.48145C5.68062 1.96475 5.8716 1.88616 6.01172 1.74609L6.37891 1.37793ZM11.0869 6.74316C11.0379 6.69533 10.9597 6.69559 10.9111 6.74414L7.66602 9.98926L7.3125 9.63574L6.08789 8.41016C6.03899 8.36126 5.95907 8.36127 5.91016 8.41016C5.86125 8.45906 5.86125 8.53898 5.91016 8.58789L7.57715 10.2539L7.57812 10.2559C7.60137 10.2792 7.63186 10.291 7.66504 10.291C7.69678 10.291 7.72809 10.2787 7.75293 10.2539L11.0869 6.9209V6.91992C11.1348 6.87221 11.1358 6.79254 11.0869 6.74316Z" fill="#516AF6" stroke="#060510" stroke-width="1.5"/>
  </symbol>
  <symbol id="medal-1" viewBox="0 0 24 24" fill="none">
    <path d="M12 17.5C16.5563 17.5 20.25 13.8063 20.25 9.25C20.25 4.69365 16.5563 1 12 1C7.44365 1 3.75 4.69365 3.75 9.25C3.75 13.8063 7.44365 17.5 12 17.5Z" fill="url(#medal1_fill)"/>
    <path d="M6.5 15.3993V23L11.6732 20.9307C11.7939 20.8824 11.8543 20.8583 11.9166 20.8487C11.9719 20.8402 12.0281 20.8402 12.0834 20.8487C12.1457 20.8583 12.2061 20.8824 12.3268 20.9307L17.5 23V15.3993M20.25 9.25C20.25 13.8063 16.5563 17.5 12 17.5C7.44365 17.5 3.75 13.8063 3.75 9.25C3.75 4.69365 7.44365 1 12 1C16.5563 1 20.25 4.69365 20.25 9.25Z" stroke="url(#medal1_stroke)" stroke-width="1.5" stroke-linecap="round" stroke-linejoin="round"/>
    <path d="M13.25 13.5H11.234V7.86H9.002V6.696C10.07 6.696 10.994 6.3 11.474 4.932H13.25V13.5Z" fill="#060510"/>
    <defs>
      <linearGradient id="medal1_fill" x1="20.25" y1="5.99951" x2="5.25" y2="23.9995" gradientUnits="userSpaceOnUse">
        <stop stop-color="#FFC861"/>
        <stop offset="0.918269" stop-color="#AF770F"/>
      </linearGradient>
      <linearGradient id="medal1_stroke" x1="12" y1="1" x2="12" y2="23" gradientUnits="userSpaceOnUse">
        <stop stop-color="#FFC861"/>
        <stop offset="0.918269" stop-color="#AF770F"/>
      </linearGradient>
    </defs>
  </symbol>
  <symbol id="medal-2" viewBox="0 0 24 24" fill="none">
    <path d="M12 17.5C16.5563 17.5 20.25 13.8063 20.25 9.25C20.25 4.69365 16.5563 1 12 1C7.44365 1 3.75 4.69365 3.75 9.25C3.75 13.8063 7.44365 17.5 12 17.5Z" fill="url(#medal2_fill)"/>
    <path d="M6.5 15.3993V23L11.6732 20.9307C11.7939 20.8824 11.8543 20.8583 11.9166 20.8487C11.9719 20.8402 12.0281 20.8402 12.0834 20.8487C12.1457 20.8583 12.2061 20.8824 12.3268 20.9307L17.5 23V15.3993M20.25 9.25C20.25 13.8063 16.5563 17.5 12 17.5C7.44365 17.5 3.75 13.8063 3.75 9.25C3.75 4.69365 7.44365 1 12 1C16.5563 1 20.25 4.69365 20.25 9.25Z" stroke="url(#medal2_stroke)" stroke-width="1.5" stroke-linecap="round" stroke-linejoin="round"/>
    <path d="M8.802 7.812C8.802 6.048 10.362 4.788 11.97 4.788C13.71 4.788 15.078 5.94 15.078 7.368C15.078 8.7 14.526 9.528 13.194 10.524C12.474 11.076 11.838 11.364 11.442 11.736H15.186V13.5H8.682C8.646 11.544 9.27 10.968 11.082 9.78C12.654 8.736 13.062 8.592 13.062 7.5C13.062 6.936 12.666 6.456 11.982 6.456C11.406 6.456 10.818 6.828 10.818 7.812H8.802Z" fill="#060510"/>
    <defs>
      <linearGradient id="medal2_fill" x1="16.5" y1="3.74951" x2="-0.749999" y2="21.7495" gradientUnits="userSpaceOnUse">
        <stop stop-color="#B3B3B2"/>
        <stop offset="1" stop-color="#4D4D4D"/>
      </linearGradient>
      <linearGradient id="medal2_stroke" x1="12" y1="1" x2="12" y2="23" gradientUnits="userSpaceOnUse">
        <stop stop-color="#B3B3B2"/>
        <stop offset="1" stop-color="#4D4D4D"/>
      </linearGradient>
    </defs>
  </symbol>
  <symbol id="medal-3" viewBox="0 0 24 24" fill="none">
    <path d="M12 17.5C16.5563 17.5 20.25 13.8063 20.25 9.25C20.25 4.69365 16.5563 1 12 1C7.44365 1 3.75 4.69365 3.75 9.25C3.75 13.8063 7.44365 17.5 12 17.5Z" fill="url(#medal3_fill)"/>
    <path d="M6.5 15.3993V23L11.6732 20.9307C11.7939 20.8824 11.8543 20.8583 11.9166 20.8487C11.9719 20.8402 12.0281 20.8402 12.0834 20.8487C12.1457 20.8583 12.2061 20.8824 12.3268 20.9307L17.5 23V15.3993M20.25 9.25C20.25 13.8063 16.5563 17.5 12 17.5C7.44365 17.5 3.75 13.8063 3.75 9.25C3.75 4.69365 7.44365 1 12 1C16.5563 1 20.25 4.69365 20.25 9.25Z" stroke="url(#medal3_stroke)" stroke-width="1.5" stroke-linecap="round" stroke-linejoin="round"/>
    <path d="M8.918 7.464C9.074 5.868 10.154 4.788 11.978 4.788C13.826 4.788 15.038 5.64 15.038 7.236C15.038 8.256 14.402 8.736 13.874 9.012C14.882 9.408 15.29 10.212 15.302 11.112C15.314 12.204 14.354 13.716 12.242 13.716C10.226 13.716 8.846 12.804 8.714 11.148L8.702 10.992H10.682L10.706 11.148C10.79 11.712 11.45 12.036 12.11 12.036C12.722 12.036 13.346 11.7 13.346 10.932C13.346 10.476 13.106 9.888 12.122 9.888C11.858 9.888 11.414 9.888 11.174 9.9V8.388C11.486 8.4 11.678 8.4 11.978 8.4C12.602 8.388 13.046 8.088 13.046 7.38C13.046 6.78 12.59 6.444 11.99 6.444C11.438 6.444 11.054 6.708 10.958 7.26L10.922 7.464H8.918Z" fill="#060510"/>
    <defs>
      <linearGradient id="medal3_fill" x1="14.25" y1="2.24951" x2="4.5" y2="16.4995" gradientUnits="userSpaceOnUse">
        <stop offset="0.0534628" stop-color="#D3864B"/>
        <stop offset="1" stop-color="#6D4527"/>
      </linearGradient>
      <linearGradient id="medal3_stroke" x1="12" y1="1" x2="12" y2="23" gradientUnits="userSpaceOnUse">
        <stop stop-color="#D3864B"/>
        <stop offset="1" stop-color="#6D4527"/>
      </linearGradient>
    </defs>
  </symbol>
  <!-- New symbols -->
  <symbol id="discord-logo" viewBox="0 0 20 16" fill="none">
    <path d="M16.9419 1.29643C15.6473 0.690699 14.263 0.250481 12.8157 -0.000183105C12.638 0.321159 12.4304 0.753372 12.2872 1.09719C10.7487 0.865832 9.22445 0.865832 7.7143 1.09719C7.57116 0.753372 7.3588 0.321159 7.17947 -0.000183105C5.73067 0.250481 4.3448 0.692316 3.05016 1.29963C0.438869 5.24564 -0.269009 9.09363 0.0849305 12.887C1.81688 14.1804 3.49534 14.966 5.14548 15.4802C5.55291 14.9194 5.91628 14.3234 6.22931 13.6952C5.63313 13.4686 5.06211 13.1891 4.52256 12.8645C4.6657 12.7585 4.80571 12.6476 4.94098 12.5335C8.23183 14.0727 11.8074 14.0727 15.0589 12.5335C15.1958 12.6476 15.3358 12.7585 15.4774 12.8645C14.9362 13.1906 14.3637 13.4702 13.7675 13.6968C14.0805 14.3234 14.4423 14.9211 14.8513 15.4818C16.503 14.9676 18.183 14.182 19.915 12.887C20.3303 8.48952 19.2056 4.67687 16.9419 1.29643ZM6.67765 10.5541C5.68977 10.5541 4.87963 9.63186 4.87963 8.50879C4.87963 7.38573 5.67247 6.46189 6.67765 6.46189C7.68285 6.46189 8.49297 7.38411 8.47567 8.50879C8.47723 9.63186 7.68285 10.5541 6.67765 10.5541ZM13.3223 10.5541C12.3344 10.5541 11.5243 9.63186 11.5243 8.50879C11.5243 7.38573 12.3171 6.46189 13.3223 6.46189C14.3275 6.46189 15.1376 7.38411 15.1203 8.50879C15.1203 9.63186 14.3275 10.5541 13.3223 10.5541Z" fill="currentColor"/>
  </symbol>
  <symbol id="twitter-logo" viewBox="0 0 20 20" fill="none">
    <path d="M11.438 8.85221L17.0277 2.5H15.7036L10.8481 8.0144L6.97281 2.5H2.50208L8.36348 10.8395L2.50208 17.5H3.82618L8.95047 11.6754L13.0439 17.5H17.5146M4.30408 3.47619H6.33828L15.7026 16.5718H13.6679" fill="currentColor"/>
  </symbol>
  <symbol id="leaf" viewBox="0 0 28 28" fill="none">
    <path d="M26.1718 6.27906C26.1235 4.78136 25.7982 3.73137 25.7853 3.6895C25.6822 3.36097 25.3537 3.16128 25.0155 3.21603C20.793 3.91818 17.7976 5.61556 16.1163 8.26954C15.1307 9.82199 14.6122 11.7223 14.6218 13.7611C14.6218 13.9157 14.625 14.0638 14.6315 14.2088C17.5947 8.00221 20.487 7.80896 20.487 7.80896C16.8732 11.7609 14.9117 16.3152 14.9181 16.3345C14.8022 16.6212 14.6959 16.9078 14.5961 17.1977C13.7908 19.5296 13.5235 23.3141 13.5171 24.7861C13.5171 24.7861 14.5928 24.7957 14.9181 24.7861C14.9246 23.4269 15.1533 19.8002 15.8973 17.6486C15.9939 17.3716 16.097 17.0947 16.2065 16.8209C20.3356 16.0253 23.2344 14.299 24.8287 11.6869C25.7692 10.1441 26.233 8.27276 26.1718 6.27906Z" fill="currentColor"/>
    <path d="M13.4528 16.9437C13.8187 16.8507 14.0499 16.505 13.9913 16.1461C13.9913 16.1461 13.9498 15.5845 13.4356 14.3914C12.9213 13.1983 11.9618 11.6497 10.2292 10.5729C8.01681 9.20042 5.15212 8.96446 1.71104 9.87505C1.35554 9.9681 1.12774 10.3004 1.17261 10.6494C1.19332 10.7956 1.67652 14.2319 4.71379 16.196C6.0564 17.0633 7.66477 17.4987 9.52509 17.4987C10.7296 17.4987 12.0412 17.3159 13.4528 16.9504V16.9437Z" fill="currentColor"/>
  </symbol>
  <symbol id="triangle-exclamation" viewBox="0 0 14 13" fill="currentColor">
    <path d="M13.0716 9.43447L8.66695 1.197C7.81362 -0.399 5.52095 -0.399 4.66695 1.197L0.262326 9.43447C-0.520341 10.8985 0.542352 12.6664 2.20569 12.6664H11.1282C12.7909 12.6664 13.8542 10.8978 13.0716 9.43447ZM6.16695 4.6664C6.16695 4.3904 6.39095 4.1664 6.66695 4.1664C6.94295 4.1664 7.16695 4.3904 7.16695 4.6664V7.33307C7.16695 7.60907 6.94295 7.83307 6.66695 7.83307C6.39095 7.83307 6.16695 7.60907 6.16695 7.33307V4.6664ZM6.68029 9.99973C6.31229 9.99973 6.01021 9.70107 6.01021 9.33307C6.01021 8.96507 6.30562 8.6664 6.67362 8.6664H6.68029C7.04896 8.6664 7.34696 8.96507 7.34696 9.33307C7.34696 9.70107 7.0483 9.99973 6.68029 9.99973Z"/>
  </symbol>
  <symbol id="check-box-filled" viewBox="0 0 16 16" fill="none">
    <path d="M2 5.2C2 4.0799 2 3.51984 2.21799 3.09202C2.40973 2.71569 2.71569 2.40973 3.09202 2.21799C3.51984 2 4.0799 2 5.2 2H10.8C11.9201 2 12.4802 2 12.908 2.21799C13.2843 2.40973 13.5903 2.71569 13.782 3.09202C14 3.51984 14 4.0799 14 5.2V10.8C14 11.9201 14 12.4802 13.782 12.908C13.5903 13.2843 13.2843 13.5903 12.908 13.782C12.4802 14 11.9201 14 10.8 14H5.2C4.0799 14 3.51984 14 3.09202 13.782C2.71569 13.5903 2.40973 13.2843 2.21799 12.908C2 12.4802 2 11.9201 2 10.8V5.2Z" fill="currentColor" stroke="currentColor" stroke-width="2" stroke-linecap="round" stroke-linejoin="round"/>
    <path d="M11.1111 5.66602L6.83336 9.94379L4.88892 7.99935" stroke="#060510" stroke-width="2" stroke-linecap="round" stroke-linejoin="round"/>
  </symbol>
  <symbol id="check-box" viewBox="0 0 16 16" fill="none">
    <path d="M10.8 2H5.2C4.0799 2 3.51984 2 3.09202 2.21799C2.71569 2.40973 2.40973 2.71569 2.21799 3.09202C2 3.51984 2 4.0799 2 5.2V10.8C2 11.9201 2 12.4802 2.21799 12.908C2.40973 13.2843 2.71569 13.5903 3.09202 13.782C3.51984 14 4.0799 14 5.2 14H10.8C11.9201 14 12.4802 14 12.908 13.782C13.2843 13.5903 13.5903 13.2843 13.782 12.908C14 12.4802 14 11.9201 14 10.8V5.2C14 4.0799 14 3.51984 13.782 3.09202C13.5903 2.71569 13.2843 2.40973 12.908 2.21799C12.4802 2 11.9201 2 10.8 2Z" stroke="currentColor" stroke-width="1.33333" stroke-linecap="round" stroke-linejoin="round"/>
  </symbol>
  <symbol id="calendar" viewBox="0 0 16 16" fill="none">
    <path d="M13.8 6.5H2.20003C2.08937 6.5 2 6.58937 2 6.70003V12C2 13.3333 2.66667 14 4 14H12C13.3333 14 14 13.3333 14 12V6.70003C14 6.58937 13.9106 6.5 13.8 6.5ZM5.34668 12C4.97868 12 4.6766 11.7013 4.6766 11.3333C4.6766 10.9653 4.97201 10.6667 5.34001 10.6667H5.34668C5.71535 10.6667 6.01335 10.9653 6.01335 11.3333C6.01335 11.7013 5.71468 12 5.34668 12ZM5.34668 9.33333C4.97868 9.33333 4.6766 9.03467 4.6766 8.66667C4.6766 8.29867 4.97201 8 5.34001 8H5.34668C5.71535 8 6.01335 8.29867 6.01335 8.66667C6.01335 9.03467 5.71468 9.33333 5.34668 9.33333ZM8.01335 12C7.64535 12 7.34326 11.7013 7.34326 11.3333C7.34326 10.9653 7.63867 10.6667 8.00667 10.6667H8.01335C8.38201 10.6667 8.68001 10.9653 8.68001 11.3333C8.68001 11.7013 8.38135 12 8.01335 12ZM8.01335 9.33333C7.64535 9.33333 7.34326 9.03467 7.34326 8.66667C7.34326 8.29867 7.63867 8 8.00667 8H8.01335C8.38201 8 8.68001 8.29867 8.68001 8.66667C8.68001 9.03467 8.38135 9.33333 8.01335 9.33333ZM10.68 12C10.312 12 10.0099 11.7013 10.0099 11.3333C10.0099 10.9653 10.3053 10.6667 10.6733 10.6667H10.68C11.0487 10.6667 11.3467 10.9653 11.3467 11.3333C11.3467 11.7013 11.048 12 10.68 12ZM10.68 9.33333C10.312 9.33333 10.0099 9.03467 10.0099 8.66667C10.0099 8.29867 10.3053 8 10.6733 8H10.68C11.0487 8 11.3467 8.29867 11.3467 8.66667C11.3467 9.03467 11.048 9.33333 10.68 9.33333ZM14 5V5.29997C14 5.41063 13.9106 5.5 13.8 5.5H2.20003C2.08937 5.5 2 5.41063 2 5.29997V5C2 3.66667 2.66667 3 4 3H4.83333V2C4.83333 1.72667 5.06 1.5 5.33333 1.5C5.60667 1.5 5.83333 1.72667 5.83333 2V3H10.1667V2C10.1667 1.72667 10.3933 1.5 10.6667 1.5C10.94 1.5 11.1667 1.72667 11.1667 2V3H12C13.3333 3 14 3.66667 14 5Z" fill="currentColor"/>
  </symbol>
  <symbol id="clock" viewBox="0 0 16 16" fill="none">
    <path fill-rule="evenodd" clip-rule="evenodd" d="M8.00016 1.33334C4.31816 1.33334 1.3335 4.318 1.3335 8C1.3335 11.682 4.31816 14.6667 8.00016 14.6667C11.6822 14.6667 14.6668 11.682 14.6668 8C14.6668 4.318 11.6822 1.33334 8.00016 1.33334ZM10.3535 10.3534C10.2562 10.4507 10.1282 10.5 10.0002 10.5C9.87216 10.5 9.74414 10.4514 9.64681 10.3534L7.64681 8.35335C7.55281 8.25936 7.50016 8.132 7.50016 8V4.66667C7.50016 4.39067 7.72416 4.16667 8.00016 4.16667C8.27616 4.16667 8.50016 4.39067 8.50016 4.66667V7.79265L10.3535 9.646C10.5488 9.842 10.5488 10.158 10.3535 10.3534Z" fill="currentColor"/>
  </symbol>
  <symbol id="exchange-horizontal-circle" viewBox="0 0 16 16" fill="none">
    <path d="M7.99992 1.33337C4.31792 1.33337 1.33325 4.31804 1.33325 8.00004C1.33325 11.682 4.31792 14.6667 7.99992 14.6667C11.6819 14.6667 14.6666 11.682 14.6666 8.00004C14.6666 4.31804 11.6819 1.33337 7.99992 1.33337ZM4.20451 7.19145C4.12784 7.00478 4.1699 6.78935 4.31323 6.64669L6.31323 4.64669C6.50857 4.45135 6.82526 4.45135 7.02059 4.64669C7.21592 4.84202 7.21592 5.15871 7.02059 5.35404L5.87394 6.50069H9.99992C10.2759 6.50069 10.4999 6.72469 10.4999 7.00069C10.4999 7.27669 10.2759 7.50069 9.99992 7.50069H4.66658C4.46392 7.50002 4.28184 7.37811 4.20451 7.19145ZM11.6866 9.35339L9.6866 11.3534C9.58927 11.4507 9.46125 11.5 9.33325 11.5C9.20525 11.5 9.07723 11.4514 8.9799 11.3534C8.78457 11.1581 8.78457 10.8414 8.9799 10.646L10.1265 9.49939H5.99992C5.72392 9.49939 5.49992 9.27539 5.49992 8.99939C5.49992 8.72339 5.72392 8.49939 5.99992 8.49939H11.3333C11.5359 8.49939 11.718 8.62132 11.7953 8.80798C11.8727 8.99532 11.8299 9.21073 11.6866 9.35339Z" fill="currentColor"/>
  </symbol>
  <symbol id="sort-vertical" viewBox="0 0 20 20" fill="none">
    <path d="M13.9226 11.0775C14.2484 11.4034 14.2484 11.9301 13.9226 12.2559L10.5892 15.5893C10.4267 15.7518 10.2134 15.8334 10 15.8334C9.7867 15.8334 9.57334 15.7518 9.41084 15.5893L6.0775 12.2559C5.75167 11.9301 5.75167 11.4034 6.0775 11.0775C6.40334 10.7517 6.93006 10.7517 7.25589 11.0775L10 13.8217L12.7442 11.0775C13.07 10.7517 13.5967 10.7517 13.9226 11.0775ZM7.25589 8.9226L10 6.17846L12.7442 8.9226C12.9067 9.0851 13.12 9.16674 13.3334 9.16674C13.5467 9.16674 13.7601 9.0851 13.9226 8.9226C14.2484 8.59676 14.2484 8.07005 13.9226 7.74421L10.5892 4.41088C10.2634 4.08505 9.73667 4.08505 9.41084 4.41088L6.0775 7.74421C5.75167 8.07005 5.75167 8.59676 6.0775 8.9226C6.40334 9.24843 6.93006 9.24843 7.25589 8.9226Z" fill="currentColor"/>
  </symbol>
  <symbol id="fomo-logo" viewBox="0 0 75 24" fill="none">
    <path d="M0.000730533 4.96351C0.000730533 1.80193 1.70048 0 5.3036 0H8.96C9.08115 0 9.17895 0.0977959 9.17895 0.218946V3.92862C9.17895 4.04977 9.08115 4.14757 8.96 4.14757H6.11954C5.20143 4.14757 4.79346 4.55554 4.79346 5.43935V6.10421C4.79346 6.22536 4.89125 6.32316 5.0124 6.32316H8.74106C8.86221 6.32316 8.96 6.42096 8.96 6.54211V10.2175C8.96 10.3386 8.86221 10.4364 8.74106 10.4364H5.0124C4.89125 10.4364 4.79346 10.5342 4.79346 10.6554V23.5776C4.79346 23.6987 4.69566 23.7965 4.57451 23.7965H0.218946C0.0977959 23.7965 0 23.6987 0 23.5776V4.96351H0.000730533Z" fill="#CBD0EB"/>
    <path d="M8.80603 15.0597C8.80603 9.6882 12.4778 6.11938 18.0185 6.11938C23.5593 6.11938 27.2311 9.68893 27.2311 15.0597C27.2311 20.4304 23.5593 24 18.0185 24C12.4778 24 8.80603 20.4304 8.80603 15.0597ZM22.3354 15.0597C22.3354 12.1703 20.7036 10.1305 18.0178 10.1305C15.3321 10.1305 13.7009 12.1703 13.7009 15.0597C13.7009 17.949 15.3328 19.9889 18.0178 19.9889C20.7028 19.9889 22.3354 17.949 22.3354 15.0597Z" fill="#CBD0EB"/>
    <path d="M55.4065 14.0401V23.5774C55.4065 23.6986 55.3087 23.7964 55.1875 23.7964H50.8319C50.7108 23.7964 50.613 23.6986 50.613 23.5774V14.0058C50.613 11.4901 49.6613 10.1648 47.6215 10.1648C45.5816 10.1648 44.1541 11.6602 44.222 14.3459V23.5774C44.222 23.6986 44.1242 23.7964 44.003 23.7964H39.6475C39.5263 23.7964 39.4285 23.6986 39.4285 23.5774V14.0058C39.4285 11.4901 38.4768 10.1648 36.4027 10.1648C34.3285 10.1648 33.0375 11.7288 33.0375 14.1759V23.5774C33.0375 23.6986 32.9397 23.7964 32.8185 23.7964H28.463C28.3418 23.7964 28.244 23.6986 28.244 23.5774V6.54268C28.244 6.42153 28.3418 6.32373 28.463 6.32373H32.2544C32.3551 6.32373 32.4427 6.39234 32.4668 6.4894L32.7901 7.7841C32.8236 7.91839 32.99 7.96875 33.0908 7.87387C34.087 6.94043 35.4262 6.11938 37.7616 6.11938C39.7854 6.11938 41.6837 6.7463 42.8251 8.57231C42.893 8.68032 43.0455 8.68981 43.1243 8.5891C44.3278 7.05137 46.245 6.11938 48.8775 6.11938C52.277 6.11938 55.4043 7.88701 55.4043 14.0401H55.4065Z" fill="#CBD0EB"/>
    <path d="M56.3983 15.0597C56.3983 9.6882 60.07 6.11938 65.6108 6.11938C71.1516 6.11938 74.8233 9.68893 74.8233 15.0597C74.8233 20.4304 71.1516 24 65.6108 24C60.07 24 56.3983 20.4304 56.3983 15.0597ZM69.9277 15.0597C69.9277 12.1703 68.2958 10.1305 65.6101 10.1305C62.9244 10.1305 61.2932 12.1703 61.2932 15.0597C61.2932 17.949 62.9251 19.9889 65.6101 19.9889C68.2951 19.9889 69.9277 17.949 69.9277 15.0597Z" fill="#CBD0EB"/>
  </symbol>
  <symbol id="apple-logo" viewBox="0 0 24 24" fill="none">
    <path d="M20.4007 8.48272C20.2725 8.58221 18.0084 9.85798 18.0084 12.6947C18.0084 15.9759 20.8894 17.1367 20.9756 17.1654C20.9623 17.2362 20.5179 18.7552 19.4566 20.3029C18.5103 21.6649 17.522 23.0247 16.0185 23.0247C14.515 23.0247 14.128 22.1513 12.3924 22.1513C10.7009 22.1513 10.0995 23.0534 8.72427 23.0534C7.349 23.0534 6.38942 21.7931 5.28611 20.2454C4.00814 18.4279 2.97559 15.6044 2.97559 12.9247C2.97559 8.62643 5.77033 6.34686 8.52085 6.34686C9.98234 6.34686 11.2006 7.30645 12.1182 7.30645C12.9916 7.30645 14.3535 6.28937 16.0162 6.28937C16.6464 6.28937 18.9105 6.34686 20.4007 8.48272ZM15.2269 4.4697C15.9145 3.65383 16.401 2.52178 16.401 1.38973C16.401 1.23275 16.3877 1.07355 16.359 0.945312C15.2402 0.987322 13.9091 1.69043 13.1065 2.62127C12.4764 3.33765 11.8883 4.4697 11.8883 5.61722C11.8883 5.78968 11.917 5.96214 11.9303 6.01742C12.001 6.03068 12.116 6.04616 12.231 6.04616C13.2348 6.04616 14.4973 5.37401 15.2269 4.4697Z" fill="currentColor"/>
  </symbol>
  <symbol id="x-logo" viewBox="0 0 20 20" fill="none">
    <path d="M11.7142 8.62265L18.4162 1H16.8286L11.0068 7.61729L6.3604 1H1L8.0278 11.0075L1 19H2.5876L8.7316 12.0104L13.6396 19H19M3.1606 2.17142H5.5996L16.8274 17.8861H14.3878" fill="currentColor"/>
  </symbol>
  <symbol id="verified-badge" viewBox="0 0 14 14" fill="none">
    <defs>
      <mask id="verified-badge-checkCutout">
        <rect width="14" height="14" fill="white"/>
        <path d="M5 7L6.5 8.5L9.5 5.5" stroke="black" stroke-width="1.5" stroke-linecap="round" stroke-linejoin="round"/>
      </mask>
    </defs>
    <path d="M5.23242 1.23242C6.20835 0.256493 7.79067 0.256493 8.7666 1.23242L9.05957 1.52539L9.13672 1.58789C9.21858 1.64237 9.31476 1.67185 9.41406 1.67188H9.82812C11.2083 1.67188 12.3271 2.79077 12.3271 4.1709V4.58496C12.3272 4.71774 12.3795 4.84513 12.4727 4.93848L12.7666 5.23242C13.7425 6.20835 13.7425 7.79067 12.7666 8.7666L12.4727 9.06055C12.3789 9.15512 12.3272 9.28208 12.3271 9.41406V9.82812C12.3271 11.2083 11.2083 12.3271 9.82812 12.3271H9.41406C9.2812 12.3272 9.15383 12.3795 9.06055 12.4727L8.7666 12.7666C7.79067 13.7425 6.20835 13.7425 5.23242 12.7666L4.93945 12.4736L4.8623 12.4111C4.78043 12.3566 4.68427 12.3272 4.58496 12.3271H4.1709C2.79077 12.3271 1.67188 11.2083 1.67188 9.82812V9.41406C1.67185 9.28117 1.6195 9.15382 1.52637 9.06055L1.23242 8.7666C0.256493 7.79067 0.256493 6.20835 1.23242 5.23242L1.52637 4.93848C1.62007 4.84398 1.67184 4.71705 1.67188 4.58496V4.1709C1.67188 2.79074 2.79077 1.67188 4.1709 1.67188H4.58496C4.7178 1.67185 4.84516 1.61955 4.93848 1.52637L5.23242 1.23242Z" fill="#516AF6" stroke="#12111A" mask="url(#verified-badge-checkCutout)"/>
  </symbol>
  <symbol id="arrow" viewBox="0 0 24 24" fill="none">
    <path fill-rule="evenodd" clip-rule="evenodd" d="M20 12C20 12.5523 19.5523 13 19 13L7.41421 13L12.7071 18.2929C13.0976 18.6834 13.0976 19.3166 12.7071 19.7071C12.3166 20.0976 11.6834 20.0976 11.2929 19.7071L4.29289 12.7071C3.90237 12.3166 3.90237 11.6834 4.29289 11.2929L11.2929 4.29289C11.6834 3.90237 12.3166 3.90237 12.7071 4.29289C13.0976 4.68342 13.0976 5.31658 12.7071 5.70711L7.41421 11L19 11C19.5523 11 20 11.4477 20 12Z" fill="currentColor"/>
  </symbol>
  <symbol id="arrow-return" viewBox="0 0 24 24" fill="none">
    <path d="M22.0001 13.5C22.0001 16.533 19.5321 19 16.5001 19H6.00007C5.44707 19 5.00007 18.552 5.00007 18C5.00007 17.448 5.44707 17 6.00007 17H16.5001C18.4301 17 20.0001 15.43 20.0001 13.5C20.0001 11.57 18.4301 10 16.5001 10H5.41413L6.7071 11.293C7.0981 11.684 7.0981 12.3161 6.7071 12.7071C6.5121 12.9021 6.25607 13 6.00007 13C5.74407 13 5.48804 12.9021 5.29304 12.7071L2.29401 9.70805C2.20101 9.61505 2.12797 9.50512 2.07697 9.38212C1.97597 9.13812 1.97597 8.86196 2.07697 8.61796C2.12797 8.49496 2.20101 8.38503 2.29401 8.29203L5.29304 5.29301C5.68404 4.90201 6.3161 4.90201 6.7071 5.29301C7.0981 5.68401 7.0981 6.31607 6.7071 6.70707L5.41413 8.00004H16.5001C19.5321 8.00004 22.0001 10.467 22.0001 13.5Z" fill="currentColor"/>
  </symbol>
  <symbol id="chevron" viewBox="0 0 20 20" fill="none">
    <path d="M12.5 15L7.5 10L12.5 5" stroke="currentColor" stroke-width="1.66667" stroke-linecap="round" stroke-linejoin="round"/>
  </symbol>
  <symbol id="search" viewBox="0 0 16 16" fill="none">
    <path d="M14 14L11.6667 11.6667M13.3333 7.66667C13.3333 10.7963 10.7963 13.3333 7.66667 13.3333C4.53705 13.3333 2 10.7963 2 7.66667C2 4.53705 4.53705 2 7.66667 2C10.7963 2 13.3333 4.53705 13.3333 7.66667Z" stroke="currentColor" stroke-width="1.5" stroke-linecap="round" stroke-linejoin="round"/>
  </symbol>
  <symbol id="bolt" viewBox="0 0 16 16" fill="none">
    <path d="M12.9717 7.19767C12.9183 7.077 12.799 6.99967 12.667 6.99967H9.66703V1.99967C9.66703 1.86167 9.58237 1.73767 9.45304 1.68834C9.32304 1.63834 9.17836 1.67433 9.08569 1.77633L3.08569 8.443C2.99769 8.541 2.97505 8.681 3.02905 8.80167C3.08238 8.92234 3.2017 8.99967 3.3337 8.99967H6.3337V13.9997C6.3337 14.1377 6.41835 14.2617 6.54769 14.311C6.58702 14.3257 6.62703 14.333 6.66703 14.333C6.7597 14.333 6.85037 14.2943 6.91504 14.2223L12.915 7.55567C13.003 7.45833 13.025 7.31767 12.9717 7.19767Z" fill="currentColor"/>
  </symbol>
  <symbol id="lightning-bolt" viewBox="0 0 13 16" fill="none">
    <path d="M12.4646 6.91456C12.3979 6.76373 12.2488 6.66707 12.0838 6.66707H8.33379V0.417065C8.33379 0.244565 8.22797 0.0895692 8.0663 0.0279026C7.9038 -0.0345974 7.72295 0.010393 7.60711 0.137893L0.107112 8.47123C-0.00288762 8.59373 -0.0311884 8.76873 0.0363116 8.91957C0.102978 9.0704 0.25212 9.16707 0.41712 9.16707H4.16712V15.4171C4.16712 15.5896 4.27294 15.7446 4.43461 15.8062C4.48377 15.8246 4.53379 15.8337 4.58379 15.8337C4.69962 15.8337 4.81296 15.7854 4.89379 15.6954L12.3938 7.36207C12.5038 7.2404 12.5313 7.06456 12.4646 6.91456Z" fill="currentColor"/>
  </symbol>
  <symbol id="plus" viewBox="0 0 12 12" fill="none">
    <path d="M6 2.5V9.5M2.5 6H9.5" stroke="currentColor" stroke-linecap="round" stroke-linejoin="round"/>
  </symbol>
  <symbol id="minus" viewBox="0 0 20 20" fill="none">
    <path d="M15.8333 10.8332H4.16659C3.70659 10.8332 3.33325 10.4598 3.33325 9.99984C3.33325 9.53984 3.70659 9.1665 4.16659 9.1665H15.8333C16.2933 9.1665 16.6666 9.53984 16.6666 9.99984C16.6666 10.4598 16.2933 10.8332 15.8333 10.8332Z" fill="currentColor"/>
  </symbol>
  <symbol id="dollar" viewBox="0 0 5 10" fill="none">
    <path d="M4.86208 6.6257C4.86208 5.65202 4.20146 4.80474 3.25354 4.56412L1.84576 4.21508C1.5925 4.15091 1.37472 4.00893 1.21333 3.80136C1.05826 3.60546 0.972704 3.35514 0.972704 3.09653C0.972704 2.46118 1.48945 1.94444 2.12479 1.94444H2.73729C3.32451 1.94444 3.81694 2.38586 3.88257 2.97114C3.91271 3.23802 4.15382 3.43098 4.41972 3.39987C4.68659 3.36973 4.87861 3.12912 4.84847 2.86273C4.73375 1.83946 3.90687 1.06409 2.89722 0.987769V0.486111C2.89722 0.21875 2.67847 0 2.41111 0C2.14375 0 1.925 0.21875 1.925 0.486111V0.992635C0.84826 1.09472 0 1.99353 0 3.097C0 3.5729 0.15993 4.03762 0.447221 4.40123C0.735485 4.7731 1.14723 5.04149 1.60854 5.15864L3.01632 5.50762C3.53014 5.6379 3.88889 6.09777 3.88889 6.62617C3.88889 6.93194 3.76833 7.22067 3.54958 7.43942C3.33132 7.65817 3.04257 7.77825 2.73681 7.77825H2.1243C1.53708 7.77825 1.04465 7.33689 0.979024 6.75162C0.948885 6.48474 0.706318 6.29269 0.441873 6.32283C0.174998 6.35297 -0.0170137 6.59364 0.0131252 6.86003C0.126389 7.87017 0.933819 8.63773 1.92549 8.73155V9.23611C1.92549 9.50347 2.14424 9.72222 2.4116 9.72222C2.67896 9.72222 2.89771 9.50347 2.89771 9.23611V8.73445C3.40278 8.69605 3.87479 8.48994 4.23792 8.12681C4.64042 7.72432 4.86208 7.19153 4.86208 6.6257Z" fill="currentColor"/>
  </symbol>
  <symbol id="globe-earth" viewBox="0 0 16 16" fill="none">
    <path d="M7.99992 0.833496C4.04792 0.833496 0.833252 4.04883 0.833252 8.00016C0.833252 11.9515 4.04792 15.1668 7.99992 15.1668C11.9519 15.1668 15.1666 11.9515 15.1666 8.00016C15.1666 4.04883 11.9519 0.833496 7.99992 0.833496ZM1.83325 8.00016C1.83325 7.2895 1.95991 6.60949 2.18258 5.97349C2.59591 8.98016 5.23325 9.23417 5.34725 9.7135C5.47392 10.2535 5.34725 10.4135 5.39392 11.3402C5.44059 12.2668 6.72057 12.2802 7.21391 13.0135C7.35924 13.2268 7.44327 13.6835 7.40727 14.1368C4.28393 13.8375 1.83325 11.2002 1.83325 8.00016ZM9.67326 13.9302C10.1273 12.5082 11.4906 12.0262 11.6292 11.2042C11.7406 10.5448 10.8739 10.2075 10.0959 10.1115C9.32524 10.0228 9.43659 9.2155 8.88859 8.64484C8.34059 8.07417 7.98191 8.10682 7.21191 8.20282C6.43391 8.29149 5.7819 8.23617 5.56657 7.76217C5.35924 7.28817 5.62591 7.0615 5.05925 6.47416C4.58724 5.98483 5.09391 5.54617 5.34591 5.48684C5.74591 5.39084 6.45723 6.09016 6.8739 6.00482C8.12923 5.74616 6.62525 3.28949 8.51058 2.67149C8.84058 2.56349 9.14923 2.30084 9.30457 1.9755C10.3819 2.20884 11.3512 2.72616 12.1392 3.44216C12.3559 4.05883 12.5066 4.76684 12.3806 5.14217C12.1286 5.92017 11.4959 6.4795 12.1866 7.75283C12.9073 9.08216 13.3519 9.26284 13.6759 8.8975C13.8046 8.75217 13.9719 8.6495 14.1386 8.5875C13.8939 11.1455 12.0806 13.2495 9.67326 13.9302Z" fill="currentColor"/>
  </symbol>
  <symbol id="credit-card" viewBox="0 0 24 24" fill="none">
    <path d="M21 8V9.25H3V8C3 6 4 5 6 5H18C20 5 21 6 21 8ZM21 10.75V16C21 18 20 19 18 19H6C4 19 3 18 3 16V10.75H21ZM10.75 15C10.75 14.586 10.414 14.25 10 14.25H7C6.586 14.25 6.25 14.586 6.25 15C6.25 15.414 6.586 15.75 7 15.75H10C10.414 15.75 10.75 15.414 10.75 15Z" fill="currentColor"/>
  </symbol>
  <symbol id="qr-code" viewBox="0 0 24 24" fill="none">
    <path d="M6.5 6.5H6.51M17.5 6.5H17.51M6.5 17.5H6.51M13 13H13.01M17.5 17.5H17.51M17 21H21V17M14 16.5V21M21 14H16.5M15.6 10H19.4C19.9601 10 20.2401 10 20.454 9.89101C20.6422 9.79513 20.7951 9.64215 20.891 9.45399C21 9.24008 21 8.96005 21 8.4V4.6C21 4.03995 21 3.75992 20.891 3.54601C20.7951 3.35785 20.6422 3.20487 20.454 3.10899C20.2401 3 19.9601 3 19.4 3H15.6C15.0399 3 14.7599 3 14.546 3.10899C14.3578 3.20487 14.2049 3.35785 14.109 3.54601C14 3.75992 14 4.03995 14 4.6V8.4C14 8.96005 14 9.24008 14.109 9.45399C14.2049 9.64215 14.3578 9.79513 14.546 9.89101C14.7599 10 15.0399 10 15.6 10ZM4.6 10H8.4C8.96005 10 9.24008 10 9.45399 9.89101C9.64215 9.79513 9.79513 9.64215 9.89101 9.45399C10 9.24008 10 8.96005 10 8.4V4.6C10 4.03995 10 3.75992 9.89101 3.54601C9.79513 3.35785 9.64215 3.20487 9.45399 3.10899C9.24008 3 8.96005 3 8.4 3H4.6C4.03995 3 3.75992 3 3.54601 3.10899C3.35785 3.20487 3.20487 3.35785 3.10899 3.54601C3 3.75992 3 4.03995 3 4.6V8.4C3 8.96005 3 9.24008 3.10899 9.45399C3.20487 9.64215 3.35785 9.79513 3.54601 9.89101C3.75992 10 4.03995 10 4.6 10ZM4.6 21H8.4C8.96005 21 9.24008 21 9.45399 20.891C9.64215 20.7951 9.79513 20.6422 9.89101 20.454C10 20.2401 10 19.9601 10 19.4V15.6C10 15.0399 10 14.7599 9.89101 14.546C9.79513 14.3578 9.64215 14.2049 9.45399 14.109C9.24008 14 8.96005 14 8.4 14H4.6C4.03995 14 3.75992 14 3.54601 14.109C3.35785 14.2049 3.20487 14.3578 3.10899 14.546C3 14.7599 3 15.0399 3 15.6V19.4C3 19.9601 3 20.2401 3.10899 20.454C3.20487 20.6422 3.35785 20.7951 3.54601 20.891C3.75992 21 4.03995 21 4.6 21Z" stroke="currentColor" stroke-width="2" stroke-linecap="round" stroke-linejoin="round"/>
  </symbol>
  <symbol id="thread" viewBox="0 0 16 16" fill="none">
    <path d="M14.1374 10.972L11.4714 13.638C11.3414 13.768 11.1707 13.8333 11 13.8333C10.8293 13.8333 10.6586 13.768 10.5286 13.638C10.268 13.3774 10.268 12.956 10.5286 12.6953L12.0573 11.1667H3.66667C2.196 11.1667 1 9.97067 1 8.5V3.16667C1 2.79867 1.298 2.5 1.66667 2.5C2.03533 2.5 2.33333 2.79867 2.33333 3.16667V8.5C2.33333 9.23533 2.93133 9.83333 3.66667 9.83333H12.0573L10.5286 8.30469C10.268 8.04402 10.268 7.62265 10.5286 7.36198C10.7893 7.10131 11.2107 7.10131 11.4714 7.36198L14.1374 10.028C14.1994 10.09 14.2481 10.1633 14.2821 10.2453C14.3494 10.4079 14.3494 10.5921 14.2821 10.7547C14.2481 10.8367 14.1994 10.91 14.1374 10.972Z" fill="currentColor"/>
    <line x1="4.44995" y1="3.4502" x2="10.95" y2="3.4502" stroke="currentColor" stroke-width="1.5" stroke-linecap="round"/>
    <line x1="4.44995" y1="6.4502" x2="7.94995" y2="6.4502" stroke="currentColor" stroke-width="1.5" stroke-linecap="round"/>
  </symbol>
  <symbol id="heart" viewBox="0 0 16 16" fill="none">
    <path d="M8 14.5002C7.92933 14.5002 7.85864 14.4855 7.79264 14.4555C7.57464 14.3562 2.444 11.9769 1.62134 7.73954C1.30334 6.1002 1.62267 4.50086 2.47534 3.46219C3.16534 2.62086 4.15731 2.17352 5.34465 2.16752C5.35065 2.16752 5.35665 2.16752 5.36198 2.16752C6.71665 2.16752 7.54268 2.93887 7.99935 3.59553C8.45802 2.9362 9.29064 2.16152 10.654 2.16752C11.842 2.17352 12.8346 2.62086 13.5253 3.46219C14.3766 4.50019 14.6953 6.09952 14.3766 7.74019C13.5553 11.9775 8.42397 14.3575 8.20597 14.4562C8.14131 14.4855 8.07067 14.5002 8 14.5002ZM5.36133 3.16686C5.35733 3.16686 5.35402 3.16686 5.35002 3.16686C4.45802 3.17086 3.75136 3.48352 3.2487 4.09619C2.5827 4.90752 2.34202 6.1982 2.60335 7.54886C3.24002 10.8315 7.062 12.9648 8 13.4435C8.938 12.9648 12.76 10.8315 13.396 7.54886C13.6587 6.19753 13.418 4.90685 12.7533 4.09619C12.2507 3.48419 11.544 3.17218 10.65 3.16752C10.646 3.16752 10.642 3.16752 10.6387 3.16752C9.05734 3.16752 8.49671 4.7522 8.47404 4.81953C8.40471 5.02153 8.21398 5.15885 8.00065 5.15885C7.99932 5.15885 7.99863 5.15885 7.99796 5.15885C7.78397 5.15818 7.59331 5.02152 7.52531 4.81819C7.50331 4.75152 6.94199 3.16686 5.36133 3.16686Z" fill="currentColor" stroke="currentColor" stroke-width="0.25"/>
  </symbol>
  <symbol id="heart-filled" viewBox="0 0 16 16" fill="none">
    <path d="M13.8867 7.64371C13.1047 11.677 8.00007 14.0004 8.00007 14.0004C8.00007 14.0004 2.89536 11.677 2.1127 7.64371C1.6327 5.16905 2.6814 2.6797 5.3474 2.66703C7.3334 2.6577 8.00007 4.65901 8.00007 4.65901C8.00007 4.65901 8.66675 2.65703 10.6521 2.66703C13.3241 2.6797 14.3667 5.16971 13.8867 7.64371Z" fill="currentColor"/>
  </symbol>
  <symbol id="share-up" viewBox="0 0 16 16" fill="none">
    <path d="M14 8V10.8C14 11.9201 14 12.4802 13.782 12.908C13.5903 13.2843 13.2843 13.5903 12.908 13.782C12.4802 14 11.9201 14 10.8 14H5.2C4.07989 14 3.51984 14 3.09202 13.782C2.71569 13.5903 2.40973 13.2843 2.21799 12.908C2 12.4802 2 11.9201 2 10.8V8M10.6667 4.66667L8 2M8 2L5.33333 4.66667M8 2V10" stroke="currentColor" stroke-width="1.6" stroke-linecap="round" stroke-linejoin="round"/>
  </symbol>
  <symbol id="telegram" viewBox="0 0 20 20" fill="none">
    <path fill-rule="evenodd" clip-rule="evenodd" d="M14.6549 17.9637C14.8897 18.13 15.1922 18.1715 15.462 18.0694C15.7318 17.9666 15.9301 17.7362 15.9899 17.457C16.6236 14.4791 18.1606 6.94188 18.7374 4.23309C18.7811 4.02893 18.7082 3.81675 18.5478 3.68039C18.3874 3.54404 18.165 3.50467 17.9667 3.57831C14.9093 4.70995 5.49382 8.24269 1.64537 9.66672C1.4011 9.75713 1.24215 9.99192 1.25017 10.2493C1.25892 10.5074 1.43246 10.7313 1.68255 10.8064C3.40845 11.3226 5.67392 12.0408 5.67392 12.0408C5.67392 12.0408 6.73265 15.2382 7.28461 16.8642C7.35388 17.0683 7.51357 17.2287 7.72429 17.2841C7.93429 17.3388 8.15886 17.2812 8.31563 17.1332C9.20228 16.2961 10.5731 15.0019 10.5731 15.0019C10.5731 15.0019 13.1776 16.9116 14.6549 17.9637ZM6.62692 11.6369L7.85116 15.6749L8.12314 13.1178C8.12314 13.1178 12.8531 8.85153 15.5495 6.41981C15.6283 6.34835 15.6392 6.22877 15.5736 6.14492C15.5087 6.06107 15.3891 6.04138 15.2994 6.09826C12.1743 8.09394 6.62692 11.6369 6.62692 11.6369Z" fill="currentColor"/>
  </symbol>
  <symbol id="solana-logo" viewBox="0 0 20 20" fill="none">
    <rect width="20" height="20" rx="3.33333" fill="var(--color-bg-tertiary)"/>
    <path d="M5.38047 12.5925C5.45709 12.5069 5.56245 12.457 5.67419 12.457H15.8076C15.9928 12.457 16.0854 12.7066 15.9545 12.8527L13.9527 15.0878C13.8761 15.1734 13.7707 15.2233 13.659 15.2233H3.52555C3.34037 15.2233 3.24779 14.9737 3.37869 14.8276L5.38047 12.5925Z" fill="currentColor"/>
    <path d="M5.38047 4.24679C5.46029 4.16123 5.56564 4.11133 5.67419 4.11133H15.8076C15.9928 4.11133 16.0854 4.36086 15.9545 4.50701L13.9527 6.7421C13.8761 6.82766 13.7707 6.87756 13.659 6.87756H3.52555C3.34037 6.87756 3.24779 6.62803 3.37869 6.48188L5.38047 4.24679Z" fill="currentColor"/>
    <path d="M13.9527 8.3923C13.8761 8.30674 13.7707 8.25684 13.659 8.25684H3.52555C3.34037 8.25684 3.24779 8.50637 3.37869 8.65252L5.38047 10.8876C5.45709 10.9732 5.56245 11.0231 5.67419 11.0231H15.8076C15.9928 11.0231 16.0854 10.7735 15.9545 10.6274L13.9527 8.3923Z" fill="currentColor"/>
  </symbol>
  <symbol id="base-logo" viewBox="0 0 20 20" fill="none">
    <rect width="20" height="20" rx="3.33333" fill="var(--color-bg-tertiary)"/>
    <path d="M4.16611 5.08866C4.16611 4.77293 4.16611 4.61516 4.22562 4.49366C4.28259 4.37736 4.37656 4.28339 4.49286 4.22642C4.61427 4.16699 4.77204 4.16699 5.08777 4.16699H14.9111C15.2267 4.16699 15.3847 4.16699 15.5061 4.22651C15.6223 4.28348 15.7163 4.37745 15.7733 4.49375C15.8328 4.61516 15.8328 4.77302 15.8328 5.08875V14.9121C15.8328 15.2277 15.8328 15.3857 15.7733 15.5071C15.7163 15.6233 15.6223 15.7173 15.5061 15.7743C15.3847 15.8337 15.2267 15.8337 14.9111 15.8337H5.08777C4.77204 15.8337 4.61427 15.8337 4.49277 15.7743C4.37647 15.7173 4.2825 15.6233 4.22553 15.5071C4.16602 15.3857 4.16602 15.2277 4.16602 14.9121V5.08866H4.16611Z" fill="currentColor"/>
  </symbol>
  <symbol id="binance-logo" viewBox="0 0 20 20" fill="none">
    <rect width="20" height="20" rx="3.33333" fill="var(--color-bg-tertiary)"/>
    <path d="M6.01905 4.79756L9.99954 2.5L13.98 4.79756L12.5166 5.64634L9.99954 4.19756L7.48247 5.64634L6.01905 4.79756ZM13.98 7.69512L12.5166 6.84634L9.99954 8.29513L7.48247 6.84634L6.01905 7.69512V9.39269L8.53612 10.8414V13.739L9.99954 14.5878L11.463 13.739V10.8414L13.98 9.39269V7.69512ZM13.98 12.2902V10.5927L12.5166 11.4414V13.139L13.98 12.2902ZM15.019 12.8902L12.502 14.339V16.0366L16.4825 13.739V9.14388L15.019 9.99269V12.8902ZM13.5557 6.24634L15.019 7.09512V8.79269L16.4825 7.9439V6.24634L15.019 5.39756L13.5557 6.24634ZM8.53612 14.9537V16.6512L9.99954 17.5L11.463 16.6512V14.9537L9.99954 15.8024L8.53612 14.9537ZM6.01905 12.2902L7.48247 13.139V11.4414L6.01905 10.5927V12.2902ZM8.53612 6.24634L9.99954 7.09512L11.463 6.24634L9.99954 5.39756L8.53612 6.24634ZM4.98001 7.09512L6.44343 6.24634L4.98001 5.39756L3.5166 6.24634V7.9439L4.98001 8.79269V7.09512ZM4.98001 9.99269L3.5166 9.14388V13.739L7.49708 16.0366V14.339L4.98001 12.8902V9.99269Z" fill="currentColor"/>
  </symbol>
  <symbol id="monad-logo" viewBox="0 0 20 20" fill="none">
    <rect width="20" height="20" rx="3.33333" fill="var(--color-bg-tertiary)"/>
    <path d="M9.99957 2.5C7.86262 2.5 2.59961 7.83402 2.59961 9.99996C2.59961 12.1659 7.86262 17.5 9.99957 17.5C12.1365 17.5 17.3996 12.1658 17.3996 9.99996C17.3996 7.83411 12.1366 2.5 9.99957 2.5ZM8.84641 14.2887C7.94529 14.0398 5.52252 9.74451 5.76812 8.8312C6.01371 7.91785 10.2517 5.4624 11.1528 5.71131C12.0539 5.96019 14.4767 10.2554 14.2311 11.1688C13.9855 12.0821 9.74753 14.5376 8.84641 14.2887Z" fill="currentColor"/>
  </symbol>
  <symbol id="bank" viewBox="0 0 19 19" fill="none">
    <path d="M16.1979 17.6855C16.7268 17.6855 16.9913 17.6855 17.1933 17.5825C17.371 17.492 17.5155 17.3475 17.606 17.1698C17.709 16.9678 17.709 16.7033 17.709 16.1743V15.4188C17.709 14.8899 17.709 14.6254 17.606 14.4234C17.5155 14.2456 17.371 14.1012 17.1933 14.0106C16.9913 13.9077 16.7268 13.9077 16.1979 13.9077H2.2201C1.69116 13.9077 1.42669 13.9077 1.22466 14.0106C1.04695 14.1012 0.90247 14.2456 0.811923 14.4234C0.708984 14.6254 0.708984 14.8899 0.708984 15.4188L0.708984 16.1743C0.708984 16.7033 0.708984 16.9678 0.811923 17.1698C0.90247 17.3475 1.04695 17.492 1.22466 17.5825C1.42669 17.6855 1.69116 17.6855 2.2201 17.6855H16.1979Z" fill="currentColor"/>
    <path d="M16.1979 6.35212C16.7268 6.35212 16.9913 6.35212 17.1933 6.24919C17.371 6.15864 17.5155 6.01416 17.606 5.83645C17.709 5.63442 17.709 5.36995 17.709 4.84101V3.78652C17.709 3.35399 17.709 3.13773 17.6323 2.95927C17.5647 2.80186 17.4556 2.6658 17.3166 2.56566C17.159 2.45213 16.9479 2.40522 16.5257 2.31139L9.53679 0.758303C9.41446 0.731119 9.35329 0.717527 9.29149 0.712107C9.23659 0.707293 9.18138 0.707293 9.12648 0.712107C9.06467 0.717527 9.00351 0.731119 8.88118 0.758303L1.89229 2.31139C1.47007 2.40522 1.25895 2.45213 1.10137 2.56566C0.96237 2.6658 0.853227 2.80186 0.785625 2.95927C0.708984 3.13773 0.708984 3.35399 0.708984 3.78652L0.708984 4.84101C0.708984 5.36995 0.708984 5.63442 0.811923 5.83645C0.90247 6.01416 1.04695 6.15864 1.22466 6.24919C1.42669 6.35212 1.69116 6.35212 2.2201 6.35212H16.1979Z" fill="currentColor"/>
    <path d="M2.59787 6.35212V13.9077M4.01454 6.35303V13.9077M14.4034 6.35303V13.4364M15.8201 6.35212V13.9077M9.53679 13.566V6.35212L8.73676 6.35303V13.4364M0.708984 15.4188L0.708984 16.1743C0.708984 16.7033 0.708984 16.9678 0.811923 17.1698C0.90247 17.3475 1.04695 17.492 1.22466 17.5825C1.42669 17.6855 1.69116 17.6855 2.2201 17.6855H16.1979C16.7268 17.6855 16.9913 17.6855 17.1933 17.5825C17.371 17.492 17.5155 17.3475 17.606 17.1698C17.709 16.9678 17.709 16.7033 17.709 16.1743V15.4188C17.709 14.8899 17.709 14.6254 17.606 14.4234C17.5155 14.2456 17.371 14.1012 17.1933 14.0106C16.9913 13.9077 16.7268 13.9077 16.1979 13.9077H2.2201C1.69116 13.9077 1.42669 13.9077 1.22466 14.0106C1.04695 14.1012 0.90247 14.2456 0.811923 14.4234C0.708984 14.6254 0.708984 14.8899 0.708984 15.4188ZM8.88118 0.758303L1.89229 2.31139C1.47007 2.40522 1.25895 2.45213 1.10137 2.56566C0.96237 2.6658 0.853227 2.80186 0.785625 2.95927C0.708984 3.13773 0.708984 3.35399 0.708984 3.78652L0.708984 4.84101C0.708984 5.36995 0.708984 5.63442 0.811923 5.83645C0.90247 6.01416 1.04695 6.15864 1.22466 6.24919C1.42669 6.35212 1.69116 6.35212 2.2201 6.35212H16.1979C16.7268 6.35212 16.9913 6.35212 17.1933 6.24919C17.371 6.15864 17.5155 6.01416 17.606 5.83645C17.709 5.63442 17.709 5.36995 17.709 4.84101V3.78652C17.709 3.35399 17.709 3.13773 17.6323 2.95927C17.5647 2.80186 17.4556 2.6658 17.3166 2.56566C17.159 2.45213 16.9479 2.40522 16.5257 2.31139L9.53679 0.758303C9.41446 0.731119 9.35329 0.717527 9.29149 0.712107C9.23659 0.707293 9.18138 0.707293 9.12648 0.712107C9.06467 0.717527 9.00351 0.731119 8.88118 0.758303Z" stroke="currentColor" stroke-width="1.41667" stroke-linecap="round" stroke-linejoin="round"/>
  </symbol>
  <symbol id="globe" viewBox="0 0 20 20" fill="none">
    <path d="M9.99996 1.66675C12.0844 3.94871 13.2689 6.91011 13.3333 10.0001C13.2689 13.0901 12.0844 16.0515 9.99996 18.3334M9.99996 1.66675C7.91556 3.94871 6.731 6.91011 6.66663 10.0001C6.731 13.0901 7.91556 16.0515 9.99996 18.3334M9.99996 1.66675C5.39759 1.66675 1.66663 5.39771 1.66663 10.0001C1.66663 14.6025 5.39759 18.3334 9.99996 18.3334M9.99996 1.66675C14.6023 1.66675 18.3333 5.39771 18.3333 10.0001C18.3333 14.6025 14.6023 18.3334 9.99996 18.3334M2.08331 7.50008H17.9166M2.08329 12.5001H17.9166" stroke="currentColor" stroke-width="1.5" stroke-linecap="round" stroke-linejoin="round" fill="none"/>
  </symbol>
  <symbol id="angles-left" viewBox="0 0 14 14" fill="none">
    <path d="M7.5 2L2.5 7L7.5 12" stroke="currentColor" stroke-width="1.5" stroke-linecap="round" stroke-linejoin="round"/>
    <path d="M12.5 2L7.5 7L12.5 12" stroke="currentColor" stroke-width="1.5" stroke-linecap="round" stroke-linejoin="round"/>
  </symbol>
  <symbol id="coins" viewBox="0 0 18 18" fill="none">
    <path d="M4.5 15.01C4.5 15.74 4.72001 16.4 5.13 16.97C2.45 16.8 0 15.82 0 14.01V13.13C1.05 13.95 2.6 14.5 4.5 14.68V15.01ZM4.53998 10.94C4.52998 10.95 4.53003 10.96 4.53003 10.97C4.51003 11.07 4.5 11.17 4.5 11.27V13.18C2.08 12.9 0 11.94 0 10.27V9.39001C1.05 10.22 2.61003 10.77 4.53003 10.94H4.53998ZM8.44 7.28003C6.92 7.75003 5.73001 8.51998 5.07001 9.47998C2.41001 9.30998 0 8.33003 0 6.53003V5.84998C1.31 6.87998 3.41 7.47998 6 7.47998C6.87 7.47998 7.69 7.41003 8.44 7.28003ZM12 5.84998V6.53003C12 6.62003 11.99 6.70003 11.98 6.78003C11.19 6.78003 10.44 6.84997 9.73999 6.96997C10.64 6.69997 11.4 6.31998 12 5.84998ZM6 0C3 0 0 0.99999 0 2.98999C0 4.99999 3 5.97998 6 5.97998C9 5.97998 12 4.99999 12 2.98999C12 0.99999 9 0 6 0ZM12 15.76C9.49 15.76 7.35 15.1 6 14.03V15.01C6 17 9 18 12 18C15 18 18 17 18 15.01V14.03C16.65 15.1 14.51 15.76 12 15.76ZM12 8.28003C8.69 8.28003 6 9.62002 6 11.27C6 12.92 8.69 14.26 12 14.26C15.31 14.26 18 12.92 18 11.27C18 9.62002 15.31 8.28003 12 8.28003Z" fill="currentColor"/>
  </symbol>
  <symbol id="trophy" viewBox="0 0 20 18" fill="none">
    <path d="M17.75 1.25H15.725C15.605 0.541 14.993 0 14.25 0H5.25C4.507 0 3.89502 0.541 3.77502 1.25H1.75C0.785 1.25 0 2.035 0 3V4.65002C0 7.47802 2.39698 8.75 4.09998 8.75H4.422C5.31 10.467 6.751 11.698 8.75 11.948V15C7.252 15.233 6.75098 16.269 6.75098 17.999H12.751C12.751 16.268 12.248 15.233 10.75 15V11.948C12.749 11.698 14.191 10.467 15.08 8.75H15.402C17.104 8.75 19.502 7.47802 19.502 4.65002V3C19.5 2.035 18.715 1.25 17.75 1.25ZM1.75 4.65002V3C1.612 3 1.75 2.862 1.75 3H3.75V6C3.75 6.422 3.79495 6.83302 3.87695 7.23102C2.97995 7.13502 1.75 6.46102 1.75 4.65002ZM17.75 4.65002C17.75 6.46102 16.52 7.13502 15.623 7.23102C15.706 6.83402 15.75 6.422 15.75 6V3H17.75C17.75 2.862 17.888 3 17.75 3V4.65002Z" fill="currentColor"/>
  </symbol>
  <symbol id="plus-circle" viewBox="0 0 20 20" fill="none">
    <path d="M10 0C4.48 0 0 4.48 0 10C0 15.52 4.48 20 10 20C15.52 20 20 15.52 20 10C20 4.48 15.52 0 10 0ZM13.5 10.75H10.75V13.5C10.75 13.91 10.41 14.25 10 14.25C9.59 14.25 9.25 13.91 9.25 13.5V10.75H6.5C6.09 10.75 5.75 10.41 5.75 10C5.75 9.59 6.09 9.25 6.5 9.25H9.25V6.5C9.25 6.09 9.59 5.75 10 5.75C10.41 5.75 10.75 6.09 10.75 6.5V9.25H13.5C13.91 9.25 14.25 9.59 14.25 10C14.25 10.41 13.91 10.75 13.5 10.75Z" fill="currentColor"/>
  </symbol>
  <symbol id="minus-circle" viewBox="0 0 20 20" fill="none">
    <path d="M10 0C4.48 0 0 4.48 0 10C0 15.52 4.48 20 10 20C15.52 20 20 15.52 20 10C20 4.48 15.52 0 10 0ZM13.5 10.75H6.5C6.09 10.75 5.75 10.41 5.75 10C5.75 9.59 6.09 9.25 6.5 9.25H13.5C13.91 9.25 14.25 9.59 14.25 10C14.25 10.41 13.91 10.75 13.5 10.75Z" fill="currentColor"/>
  </symbol>
  <symbol id="send" viewBox="0 0 16 16" fill="none">
    <path d="M14.2834 1.71671C13.9334 1.36671 13.4167 1.23338 12.9334 1.36671L2.26671 4.38338C1.75337 4.52338 1.38004 4.91338 1.28004 5.40671C1.17671 5.91338 1.48004 6.53338 1.93337 6.80671L5.46004 8.90005C5.82004 9.11671 6.28337 9.06671 6.59004 8.76005L10.2834 5.06671C10.48 4.86005 10.8034 4.86005 11 5.06671C11.1967 5.26338 11.1967 5.58005 11 5.78338L7.30004 9.48338C6.99337 9.79005 6.94337 10.2534 7.16004 10.6134L9.25337 14.1534C9.50004 14.5734 9.93337 14.8 10.4067 14.8C10.4667 14.8 10.5334 14.7934 10.5934 14.7867C11.1234 14.7067 11.5367 14.3334 11.6867 13.82L14.6367 3.07338C14.7767 2.59338 14.6367 2.07005 14.2834 1.71671Z" fill="currentColor"/>
  </symbol>
  <symbol id="sliders-horizontal" viewBox="0 0 24 24" fill="none">
    <path d="M21 6H14M10 6H3M21 18H12M8 18H3M21 12H16M12 12H3" stroke="currentColor" stroke-width="1.5" stroke-linecap="round" stroke-linejoin="round"/>
    <circle cx="12" cy="6" r="2" stroke="currentColor" stroke-width="1.5"/>
    <circle cx="10" cy="12" r="2" stroke="currentColor" stroke-width="1.5"/>
    <circle cx="10" cy="18" r="2" stroke="currentColor" stroke-width="1.5"/>
  </symbol>
  <symbol id="chevron-left" viewBox="0 0 16 16" fill="none">
    <path d="M10 3 5 8l5 5" stroke="currentColor" stroke-width="1.5" stroke-linecap="round" stroke-linejoin="round"/>
  </symbol>
  <symbol id="chevron-right" viewBox="0 0 16 16" fill="none">
    <path d="m6 3 5 5-5 5" stroke="currentColor" stroke-width="1.5" stroke-linecap="round" stroke-linejoin="round"/>
  </symbol>
  <symbol id="xmark" viewBox="0 0 12 12" fill="none">
    <path d="M3 3l6 6M9 3l-6 6" stroke="currentColor" stroke-width="1" stroke-linecap="round"/>
  </symbol>
  <symbol id="split-horizontal" viewBox="0 0 16 16" fill="none">
    <path d="M2 8h12" stroke="currentColor" stroke-width="1.5" stroke-linecap="round"/>
    <path d="M8 5V2M8 11v3M6 3.5 8 1.5l2 2M6 12.5 8 14.5l2-2" stroke="currentColor" stroke-width="1.5" stroke-linecap="round" stroke-linejoin="round"/>
  </symbol>
  <symbol id="rows" viewBox="0 0 24 24" fill="none">
    <path d="M18.5 10.75H5.5C4.091 10.75 3.25 9.909 3.25 8.5V5.5C3.25 4.091 4.091 3.25 5.5 3.25H18.5C19.909 3.25 20.75 4.091 20.75 5.5V8.5C20.75 9.909 19.909 10.75 18.5 10.75ZM5.5 4.75C4.911 4.75 4.75 4.911 4.75 5.5V8.5C4.75 9.089 4.911 9.25 5.5 9.25H18.5C19.089 9.25 19.25 9.089 19.25 8.5V5.5C19.25 4.911 19.089 4.75 18.5 4.75H5.5ZM18.5 20.75H5.5C4.091 20.75 3.25 19.909 3.25 18.5V15.5C3.25 14.091 4.091 13.25 5.5 13.25H18.5C19.909 13.25 20.75 14.091 20.75 15.5V18.5C20.75 19.909 19.909 20.75 18.5 20.75ZM5.5 14.75C4.911 14.75 4.75 14.911 4.75 15.5V18.5C4.75 19.089 4.911 19.25 5.5 19.25H18.5C19.089 19.25 19.25 19.089 19.25 18.5V15.5C19.25 14.911 19.089 14.75 18.5 14.75H5.5Z" fill="currentColor"/>
  </symbol>
  <symbol id="filter" viewBox="0 0 24 24" fill="none">
    <path d="M14 21.75C13.841 21.75 13.683 21.699 13.55 21.6L9.55005 18.6C9.36205 18.458 9.25 18.236 9.25 18V14C9.25 13.8 9.17203 13.611 9.03003 13.469L3.90906 8.34799C3.48406 7.92199 3.25 7.35799 3.25 6.75699V4.5C3.25 3.259 4.26 2.25 5.5 2.25H18.5C19.74 2.25 20.75 3.259 20.75 4.5V6.75699C20.75 7.35799 20.5159 7.92299 20.0909 8.34799L14.97 13.469C14.828 13.611 14.75 13.799 14.75 14V21C14.75 21.284 14.59 21.544 14.335 21.671C14.229 21.724 14.114 21.75 14 21.75ZM10.75 17.625L13.25 19.5V14C13.25 13.399 13.4841 12.834 13.9091 12.409L19.03 7.28799C19.172 7.14599 19.25 6.95799 19.25 6.75699V4.5C19.25 4.086 18.913 3.75 18.5 3.75H5.5C5.087 3.75 4.75 4.086 4.75 4.5V6.75699C4.75 6.95699 4.82797 7.14599 4.96997 7.28799L10.0909 12.409C10.5159 12.835 10.75 13.399 10.75 14V17.625Z" fill="currentColor"/>
  </symbol>
  <symbol id="columns" viewBox="0 0 20 20" fill="none">
    <path d="M7.08337 17.2916H4.58337C3.40921 17.2916 2.70837 16.5908 2.70837 15.4166V4.58325C2.70837 3.40909 3.40921 2.70825 4.58337 2.70825H7.08337C8.25754 2.70825 8.95837 3.40909 8.95837 4.58325V15.4166C8.95837 16.5908 8.25754 17.2916 7.08337 17.2916ZM4.58337 3.95825C4.09254 3.95825 3.95837 4.09242 3.95837 4.58325V15.4166C3.95837 15.9074 4.09254 16.0416 4.58337 16.0416H7.08337C7.57421 16.0416 7.70837 15.9074 7.70837 15.4166V4.58325C7.70837 4.09242 7.57421 3.95825 7.08337 3.95825H4.58337ZM15.4167 17.2916H12.9167C11.7425 17.2916 11.0417 16.5908 11.0417 15.4166V4.58325C11.0417 3.40909 11.7425 2.70825 12.9167 2.70825H15.4167C16.5909 2.70825 17.2917 3.40909 17.2917 4.58325V15.4166C17.2917 16.5908 16.5909 17.2916 15.4167 17.2916ZM12.9167 3.95825C12.4259 3.95825 12.2917 4.09242 12.2917 4.58325V15.4166C12.2917 15.9074 12.4259 16.0416 12.9167 16.0416H15.4167C15.9075 16.0416 16.0417 15.9074 16.0417 15.4166V4.58325C16.0417 4.09242 15.9075 3.95825 15.4167 3.95825H12.9167Z" fill="currentColor"/>
  </symbol>
  <symbol id="star" viewBox="0 0 20 20" fill="none">
    <path d="M10.9786 1.4468L12.9566 5.47906C13.1053 5.78274 13.3926 5.99277 13.7256 6.04115L18.2917 6.70817C19.1289 6.83067 19.4631 7.86835 18.857 8.46336L15.556 11.7009C15.3146 11.9377 15.2045 12.2784 15.2615 12.613L16.0162 17.0437C16.169 17.9423 15.235 18.6279 14.4345 18.2048L10.4744 16.11C10.177 15.9525 9.82253 15.9525 9.52614 16.11L5.56909 18.2028C4.76749 18.6269 3.8304 17.9403 3.9842 17.0395L4.73903 12.613C4.79607 12.2784 4.68601 11.9377 4.44461 11.7009L1.14355 8.46336C0.536495 7.86835 0.870508 6.83067 1.70877 6.70817L6.27493 6.04115C6.60697 5.99277 6.89421 5.78274 7.04393 5.47906L9.02196 1.4468C9.42021 0.628409 10.5773 0.628409 10.9786 1.4468Z" fill="#FFC74F"/>
  </symbol>
  <symbol id="star-empty" viewBox="0 0 18 17" fill="none">
    <path d="M8.09037 1.51974C8.28244 1.13063 8.37848 0.936068 8.50885 0.873906C8.62228 0.819823 8.75407 0.819823 8.8675 0.873906C8.99787 0.936068 9.09391 1.13063 9.28598 1.51974L11.1082 5.21138C11.1649 5.32626 11.1933 5.38369 11.2347 5.42829C11.2714 5.46778 11.3154 5.49977 11.3643 5.5225C11.4195 5.54816 11.4828 5.55743 11.6096 5.57596L15.6857 6.17173C16.1149 6.23447 16.3295 6.26584 16.4288 6.37067C16.5152 6.46189 16.5559 6.58722 16.5394 6.71179C16.5205 6.85496 16.3651 7.00629 16.0544 7.30896L13.106 10.1807C13.0141 10.2702 12.9682 10.3149 12.9385 10.3682C12.9123 10.4153 12.8954 10.4672 12.8889 10.5207C12.8816 10.5812 12.8924 10.6445 12.9141 10.7709L13.6098 14.8271C13.6832 15.2549 13.7199 15.4688 13.6509 15.5957C13.5909 15.7062 13.4843 15.7836 13.3607 15.8065C13.2187 15.8329 13.0266 15.7319 12.6424 15.5298L8.99848 13.6135C8.88494 13.5538 8.82817 13.5239 8.76836 13.5122C8.71541 13.5018 8.66094 13.5018 8.60799 13.5122C8.54818 13.5239 8.49141 13.5538 8.37787 13.6135L4.73393 15.5298C4.34976 15.7319 4.15767 15.8329 4.01564 15.8065C3.89206 15.7836 3.78543 15.7062 3.72544 15.5957C3.65649 15.4688 3.69318 15.2549 3.76656 14.8271L4.46223 10.7709C4.48392 10.6445 4.49477 10.5812 4.48743 10.5207C4.48093 10.4672 4.46409 10.4153 4.43783 10.3682C4.40818 10.3149 4.36222 10.2702 4.27032 10.1807L1.32196 7.30896C1.01121 7.00629 0.85584 6.85496 0.836933 6.71179C0.820483 6.58722 0.861122 6.46189 0.947537 6.37067C1.04686 6.26584 1.26147 6.23447 1.6907 6.17173L5.76675 5.57596C5.89351 5.55743 5.95689 5.54816 6.01209 5.5225C6.06096 5.49977 6.10496 5.46778 6.14165 5.42829C6.18308 5.38369 6.21144 5.32626 6.26814 5.21138L8.09037 1.51974Z" stroke="currentColor" stroke-width="1.66667" stroke-linecap="round" stroke-linejoin="round"/>
  </symbol>
  <symbol id="check-square" viewBox="0 0 16 16" fill="none">
    <rect x="1" y="1" width="14" height="14" rx="3" fill="currentColor" stroke="currentColor" stroke-width="1.5"/>
    <path d="M5 8L7 10L11 6" stroke="white" stroke-width="1.5" stroke-linecap="round" stroke-linejoin="round"/>
  </symbol>
  <symbol id="square" viewBox="0 0 16 16" fill="none">
    <rect x="1.5" y="1.5" width="13" height="13" rx="2.5" stroke="currentColor" stroke-width="1.5"/>
  </symbol>
  <symbol id="pen" viewBox="0 0 12 12" fill="none">
    <path d="M9.35807 5.71671C9.43607 5.79471 9.43607 5.92199 9.35807 5.99999L3.33333 11.9987H0V8.66536L5.9987 2.6407C6.0767 2.56203 6.2034 2.56203 6.28206 2.6407L9.35807 5.71671ZM11.6066 1.87206L10.1266 0.392C9.60396 -0.130667 8.75607 -0.130667 8.2334 0.392L6.98128 1.64403C6.90328 1.72203 6.90328 1.84867 6.98128 1.92667L10.0719 5.01733C10.1499 5.09533 10.2767 5.09533 10.3547 5.01733L11.6066 3.76537C12.1293 3.24271 12.1293 2.39473 11.6066 1.87206Z" fill="currentColor"/>
  </symbol>
  <symbol id="trash" viewBox="0 0 16 16" fill="none">
    <path d="M13.8332 4C13.8332 4.276 13.6092 4.5 13.3332 4.5H2.6665C2.3905 4.5 2.1665 4.276 2.1665 4C2.1665 3.724 2.3905 3.5 2.6665 3.5H5.47584C5.53784 3.37867 5.58583 3.24134 5.63717 3.088L5.77184 2.68333C5.90784 2.27533 6.28983 2 6.7205 2H9.27917C9.70984 2 10.0918 2.27533 10.2278 2.68333L10.3625 3.088C10.4138 3.24134 10.4618 3.37867 10.5238 3.5H13.3332C13.6092 3.5 13.8332 3.724 13.8332 4ZM12.3732 5.16667C12.4885 5.16667 12.5805 5.26467 12.5725 5.38L12.1265 12.1333C12.0532 13.1867 11.4998 14 10.1265 14H5.87317C4.49984 14 3.9465 13.1867 3.87317 12.1333L3.42717 5.38C3.41984 5.26467 3.51117 5.16667 3.62651 5.16667H12.3732ZM7.1665 7.33333C7.1665 7.06 6.93984 6.83333 6.6665 6.83333C6.39317 6.83333 6.1665 7.06 6.1665 7.33333V10.6667C6.1665 10.94 6.39317 11.1667 6.6665 11.1667C6.93984 11.1667 7.1665 10.94 7.1665 10.6667V7.33333ZM9.83317 7.33333C9.83317 7.06 9.6065 6.83333 9.33317 6.83333C9.05984 6.83333 8.83317 7.06 8.83317 7.33333V10.6667C8.83317 10.94 9.05984 11.1667 9.33317 11.1667C9.6065 11.1667 9.83317 10.94 9.83317 10.6667V7.33333Z" fill="currentColor"/>
  </symbol>
  <symbol id="camera" viewBox="0 0 16 16" fill="none">
    <path d="M15.333 12.6667C15.333 13.0203 15.1925 13.3594 14.9425 13.6095C14.6924 13.8595 14.3533 14 13.9997 14H1.99967C1.64605 14 1.30691 13.8595 1.05687 13.6095C0.806816 13.3594 0.666341 13.0203 0.666341 12.6667V5.33333C0.666341 4.97971 0.806816 4.64057 1.05687 4.39052C1.30691 4.14048 1.64605 4 1.99967 4H4.66634L5.99967 2H9.99967L11.333 4H13.9997C14.3533 4 14.6924 4.14048 14.9425 4.39052C15.1925 4.64057 15.333 4.97971 15.333 5.33333V12.6667Z" stroke="currentColor" stroke-width="1.33" stroke-linecap="round" stroke-linejoin="round"/>
    <path d="M8.00001 11.3333C9.47277 11.3333 10.6667 10.1394 10.6667 8.66667C10.6667 7.19391 9.47277 6 8.00001 6C6.52725 6 5.33334 7.19391 5.33334 8.66667C5.33334 10.1394 6.52725 11.3333 8.00001 11.3333Z" stroke="currentColor" stroke-width="1.33" stroke-linecap="round" stroke-linejoin="round"/>
  </symbol>
  <symbol id="instagram" viewBox="0 0 20 20" fill="none">
    <rect x="2.5" y="2.5" width="15" height="15" rx="4.5" stroke="currentColor" stroke-width="1.66667"/>
    <circle cx="10" cy="10" r="3.5" stroke="currentColor" stroke-width="1.66667"/>
    <circle cx="14.75" cy="5.25" r="0.95" fill="currentColor"/>
  </symbol>
  <symbol id="download-01" viewBox="0 0 20 20" fill="none">
    <path d="M10 2.5V13.333M10 13.333L5.833 9.167M10 13.333L14.167 9.167M3.333 14.583V16.667H16.667V14.583" stroke="currentColor" stroke-width="1.66667" stroke-linecap="round" stroke-linejoin="round"/>
  </symbol>
  <symbol id="copy" viewBox="0 0 20 20" fill="none">
    <rect x="7.5" y="7.5" width="10" height="10" rx="2" stroke="currentColor" stroke-width="1.66667" stroke-linecap="round" stroke-linejoin="round"/>
    <path d="M13.333 7.5V5.833C13.333 4.453 12.214 3.333 10.833 3.333H5C3.619 3.333 2.5 4.453 2.5 5.833V11.667C2.5 13.047 3.619 14.167 5 14.167H6.667" stroke="currentColor" stroke-width="1.66667" stroke-linecap="round" stroke-linejoin="round"/>
  </symbol>
  <symbol id="link-alt" viewBox="0 0 16 16" fill="none">
    <path d="M6.667 11.333H4.333C2.861 11.333 1.667 10.139 1.667 8.667V7.333C1.667 5.861 2.861 4.667 4.333 4.667H6.667M9.333 4.667H11.667C13.139 4.667 14.333 5.861 14.333 7.333V8.667C14.333 10.139 13.139 11.333 11.667 11.333H9.333M5.333 8H10.667" stroke="currentColor" stroke-width="1.33" stroke-linecap="round" stroke-linejoin="round"/>
  </symbol>
  <symbol id="gift" viewBox="0 0 20 20" fill="currentColor">
    <path d="M3.58337 11.2503H9.375V17.2503C9.375 17.3887 9.26329 17.5003 9.12496 17.5003H5.83333C4.16667 17.5003 3.33333 16.667 3.33333 15.0003V11.5003C3.33333 11.362 3.44504 11.2503 3.58337 11.2503ZM16.4166 11.2503H10.625V17.2503C10.625 17.3887 10.7367 17.5003 10.875 17.5003H14.1667C15.8333 17.5003 16.6667 16.667 16.6667 15.0003V11.5003C16.6667 11.362 16.555 11.2503 16.4166 11.2503ZM17.5 7.08367V9.75034C17.5 9.88868 17.3883 10.0003 17.25 10.0003H10.625V7.08367H9.375V10.0003H2.75004C2.61171 10.0003 2.5 9.88868 2.5 9.75034V7.08367C2.5 6.39367 3.06 5.83367 3.75 5.83367H4.63745C4.37162 5.31867 4.27251 4.70449 4.50918 4.03699C4.74501 3.37199 5.28329 2.82118 5.95662 2.61035C6.88829 2.31868 7.84666 2.62366 8.43333 3.33616C8.46 3.36866 9.39748 4.61615 10.0008 5.41781C10.6033 4.61615 11.54 3.37115 11.5625 3.34282C12.1533 2.62449 13.1033 2.32198 14.0325 2.60531C14.6825 2.80448 15.2108 3.3195 15.4608 3.952C15.7375 4.652 15.6408 5.29619 15.3642 5.83285H16.2516C16.94 5.83368 17.5 6.39367 17.5 7.08367ZM8.74837 5.83367C8.18421 5.08367 7.5025 4.17698 7.45667 4.11781C7.26583 3.88531 6.98167 3.75033 6.66667 3.75033C6.0925 3.75033 5.625 4.21783 5.625 4.792C5.625 5.36617 6.0925 5.83367 6.66667 5.83367H8.74837ZM14.375 4.792C14.375 4.21783 13.9075 3.75033 13.3333 3.75033C13.0183 3.75033 12.7341 3.88531 12.5324 4.13114C12.4933 4.18281 11.8141 5.08533 11.2516 5.83367H13.3333C13.9075 5.83367 14.375 5.36617 14.375 4.792Z"/>
  </symbol>
  <symbol id="settings-gear" viewBox="0 0 20 20" fill="none">
    <path d="M17.3583 12.1667C16.5833 11.7167 16.1083 10.8917 16.1083 10C16.1083 9.10833 16.5833 8.28333 17.3583 7.83333C17.4917 7.74999 17.5417 7.58334 17.4583 7.45L16.0667 5.05C16.0167 4.95833 15.925 4.90835 15.8333 4.90835C15.7833 4.90835 15.7333 4.925 15.6917 4.95C15.3083 5.16667 14.875 5.28333 14.4417 5.28333C14 5.28333 13.5667 5.16666 13.175 4.94166C12.4 4.49166 11.925 3.675 11.925 2.78333C11.925 2.625 11.8 2.5 11.65 2.5H8.34999C8.19999 2.5 8.075 2.625 8.075 2.78333C8.075 3.675 7.6 4.49166 6.825 4.94166C6.43334 5.16666 6.00001 5.28333 5.55834 5.28333C5.12501 5.28333 4.69168 5.16667 4.30834 4.95C4.17501 4.86667 4.00833 4.91666 3.93333 5.05L2.53334 7.45C2.50834 7.49167 2.5 7.54167 2.5 7.58334C2.5 7.68334 2.55001 7.77499 2.64168 7.83333C3.41668 8.28333 3.89168 9.09999 3.89168 9.99166C3.89168 10.8917 3.41666 11.7167 2.64999 12.1667H2.64168C2.50834 12.25 2.45832 12.4167 2.54166 12.55L3.93333 14.95C3.98333 15.0417 4.075 15.0917 4.16667 15.0917C4.21667 15.0917 4.26668 15.075 4.30834 15.05C5.09168 14.6083 6.05 14.6083 6.825 15.0583C7.59167 15.5083 8.06666 16.325 8.06666 17.2167C8.06666 17.375 8.19166 17.5 8.34999 17.5H11.65C11.8 17.5 11.925 17.375 11.925 17.2167C11.925 16.325 12.4 15.5083 13.175 15.0583C13.5667 14.8333 14 14.7167 14.4417 14.7167C14.875 14.7167 15.3083 14.8333 15.6917 15.05C15.825 15.1333 15.9917 15.0833 16.0667 14.95L17.4667 12.55C17.4917 12.5083 17.5 12.4583 17.5 12.4167C17.5 12.3167 17.45 12.225 17.3583 12.1667ZM10 12.5C8.61667 12.5 7.5 11.3833 7.5 10C7.5 8.61667 8.61667 7.5 10 7.5C11.3833 7.5 12.5 8.61667 12.5 10C12.5 11.3833 11.3833 12.5 10 12.5Z" fill="currentColor"/>
  </symbol>

  <symbol id="apple-logo" viewBox="0 0 16 16" fill="none">
    <path d="M12.743 5.725c-.07.054-1.304.75-1.304 2.297 0 1.79 1.571 2.423 1.618 2.439-.007.038-.25.865-.829 1.707-.514.741-1.05 1.481-1.867 1.481-.817 0-1.027-.475-1.972-.475-.921 0-1.248.49-2.003.49-.756 0-1.273-.686-1.882-1.527C3.78 11.16 3.2 9.82 3.2 8.553c0-2.036 1.323-3.116 2.623-3.116.817 0 1.498.537 2.012.537.49 0 1.249-.569 2.168-.569.35 0 1.609.032 2.44.858l.3.462ZM10.14 3.52c.374-.444.64-1.06.64-1.676 0-.086-.007-.172-.023-.242-.61.023-1.335.407-1.772.905-.343.39-.663 1.006-.663 1.63 0 .094.016.189.023.218.039.008.102.016.164.016.548 0 1.24-.367 1.632-.851Z" fill="currentColor"/>
  </symbol>
  <symbol id="share" viewBox="0 0 20 20" fill="none">
    <path d="M7.05831 5.44169C6.81414 5.19752 6.81414 4.80166 7.05831 4.55749L9.55831 2.05749C9.61581 1.99999 9.68509 1.95417 9.76176 1.9225C9.91426 1.85917 10.0868 1.85917 10.2393 1.9225C10.3159 1.95417 10.385 1.99999 10.4425 2.05749L12.9425 4.55749C13.1867 4.80166 13.1867 5.19752 12.9425 5.44169C12.8208 5.56335 12.6608 5.62499 12.5008 5.62499C12.3408 5.62499 12.1808 5.56419 12.0591 5.44169L10.6258 4.00833V13.3333C10.6258 13.6783 10.3458 13.9583 10.0008 13.9583C9.65581 13.9583 9.37581 13.6783 9.37581 13.3333V4.00914L7.9425 5.4425C7.6975 5.68583 7.30248 5.68585 7.05831 5.44169ZM15 7.70833C14.655 7.70833 14.375 7.98833 14.375 8.33333C14.375 8.67833 14.655 8.95833 15 8.95833C16.3142 8.95833 16.875 9.51916 16.875 10.8333V15C16.875 16.3142 16.3142 16.875 15 16.875H5C3.68583 16.875 3.125 16.3142 3.125 15V10.8333C3.125 9.51916 3.68583 8.95833 5 8.95833C5.345 8.95833 5.625 8.67833 5.625 8.33333C5.625 7.98833 5.345 7.70833 5 7.70833C2.985 7.70833 1.875 8.81833 1.875 10.8333V15C1.875 17.015 2.985 18.125 5 18.125H15C17.015 18.125 18.125 17.015 18.125 15V10.8333C18.125 8.81833 17.015 7.70833 15 7.70833Z" fill="currentColor"/>
  </symbol>
  <symbol id="not-found" viewBox="0 0 921 478" fill="none">
    <path d="M134.637 378L145.79 313.47H2.39L9.16167 272.84L168.495 99.1666H227.448L196.378 275.23H238.203L231.432 313.47H189.607L178.055 378H134.637ZM54.97 275.23H152.562L176.462 144.178L54.97 275.23Z" fill="currentColor"/>
    <path d="M659.508 136.026C640.755 113.556 613.603 101.176 583.052 101.176C547.412 101.176 512.23 117.905 484.706 144.619C482.717 141.643 480.621 138.755 478.35 136.026C459.579 113.556 432.426 101.176 401.874 101.176C333.358 101.176 266.427 162.898 252.64 238.761C245.49 278.155 253.925 315.77 275.795 341.973C294.549 364.443 321.701 376.822 352.253 376.822C387.893 376.822 423.075 360.094 450.598 333.397C452.588 336.372 454.684 339.243 456.955 341.973C475.708 364.443 502.86 376.822 533.429 376.822C601.928 376.822 668.878 315.1 682.646 239.237C689.796 199.844 681.361 162.229 659.492 136.026H659.508ZM657.485 137.716C665.196 146.961 671.183 157.686 675.374 169.431H645.791C642.217 150.36 635.243 133.983 625.118 121.832C619.378 114.947 612.776 109.717 605.538 106.247C626.017 110.773 643.996 121.55 657.501 137.716H657.485ZM586.485 172.073H604.411C604.129 191.69 601.911 214.178 597.702 237.687H570.056L587.543 176.669C588.088 174.767 587.612 173.094 586.468 172.073H586.485ZM434.046 237.687H419.201C423.427 214.002 425.646 191.62 425.946 172.073H461.568C448.238 191.55 438.536 213.896 434.046 237.687ZM416.525 237.687H378.384L395.87 176.669C396.416 174.767 395.94 173.094 394.796 172.073H423.216C422.935 191.69 420.716 214.178 416.507 237.687H416.525ZM360.124 301.329L377.609 240.311H416.014C411.594 264.155 405.66 286.537 398.898 305.926H356.426C358.152 304.904 359.578 303.231 360.124 301.329ZM418.726 240.329H433.588C429.608 263.521 431.052 286.044 437.462 305.942H401.751C408.46 286.59 414.324 264.278 418.726 240.329ZM551.813 301.329L569.3 240.311H597.208C592.789 264.155 586.838 286.537 580.076 305.926H548.098C549.824 304.904 551.249 303.231 551.797 301.329H551.813ZM599.904 240.329H642.058C637.551 264.172 629.45 286.554 619.008 305.942H582.911C589.619 286.59 595.483 264.278 599.885 240.329H599.904ZM600.378 237.687C604.605 214.002 606.823 191.62 607.123 172.073H643.608C646.971 191.708 646.724 214.143 642.552 237.687H600.378ZM623.095 123.523C632.866 135.233 639.628 151.029 643.132 169.431H607.158C607.333 140.005 603.038 117.377 594.461 107.128C593.669 106.177 592.842 105.349 591.997 104.627C603.831 106.758 614.448 113.186 623.076 123.523H623.095ZM592.438 108.801C600.518 118.486 604.586 140.71 604.429 169.414H537.322C551.374 130.126 568.718 103.8 583.033 103.8C586.503 103.8 589.654 105.473 592.419 108.783L592.438 108.801ZM534.504 169.431H498.917C518.356 134.582 545.421 109.981 572.645 104.856C559.702 113.538 545.968 137.17 534.504 169.431ZM558.258 106.529C534.873 116.373 512.581 139.248 495.976 169.431H466.622C489.778 137.523 522.916 114.172 558.258 106.529ZM476.306 137.716C478.632 140.499 480.762 143.439 482.751 146.486C476.096 153.142 469.933 160.38 464.333 168.111C460.688 149.62 453.838 133.684 443.942 121.832C438.201 114.947 431.598 109.717 424.361 106.247C444.84 110.773 462.818 121.55 476.325 137.716H476.306ZM441.899 123.523C451.672 135.233 458.433 151.029 461.938 169.431H425.963C426.139 140.005 421.843 117.377 413.267 107.128C412.475 106.177 411.647 105.349 410.802 104.627C422.635 106.758 433.253 113.186 441.882 123.523H441.899ZM411.26 108.801C419.342 118.486 423.41 140.71 423.251 169.414H356.144C370.196 130.144 387.541 103.817 401.874 103.817C405.343 103.817 408.495 105.49 411.26 108.801ZM353.327 169.431H317.739C337.18 134.599 364.244 109.981 391.468 104.839C378.525 113.52 364.79 137.17 353.327 169.414V169.431ZM377.064 106.529C353.679 116.373 331.369 139.248 314.764 169.431H285.445C308.618 137.54 341.723 114.172 377.064 106.529ZM277.838 340.282C270.125 331.037 264.138 320.294 259.947 308.566H289.53C293.105 327.639 300.078 344.014 310.203 356.165C315.943 363.052 322.547 368.281 329.784 371.751C309.305 367.226 291.326 356.447 277.82 340.282H277.838ZM312.228 354.475C302.455 342.765 295.693 326.969 292.189 308.566H328.164C327.988 337.993 332.284 360.621 340.86 370.871C341.652 371.822 342.48 372.649 343.325 373.372C331.492 371.24 320.874 364.812 312.246 354.475H312.228ZM342.885 369.198C334.802 359.512 330.735 337.289 330.893 308.585H398C383.949 347.871 366.604 374.199 352.288 374.199C348.819 374.199 345.667 372.526 342.902 369.215L342.885 369.198ZM400.818 308.585H436.405C416.965 343.4 389.9 368.034 362.695 373.159C375.637 364.478 389.372 340.827 400.835 308.585H400.818ZM377.064 371.487C400.149 361.766 422.177 339.314 438.712 309.693C441.441 317.301 444.91 324.503 449.119 331.161C428.464 351.34 403.389 365.78 377.046 371.469L377.064 371.487ZM459.015 340.282C451.302 331.037 445.315 320.313 441.124 308.566H470.707C474.282 327.639 481.238 344.014 491.379 356.165C497.12 363.052 503.724 368.281 510.962 371.751C490.483 367.226 472.504 356.447 458.997 340.282H459.015ZM493.405 354.475C483.631 342.765 476.888 326.969 473.365 308.566H509.324C509.13 337.993 513.443 360.621 522.02 370.871C522.812 371.822 523.639 372.649 524.485 373.372C512.65 371.24 502.033 364.812 493.405 354.475ZM524.062 369.198C515.979 359.512 511.911 337.289 512.071 308.585H579.16C565.107 347.871 547.782 374.199 533.464 374.199C529.997 374.199 526.843 372.526 524.08 369.215L524.062 369.198ZM581.994 308.585H617.548C598.125 343.4 571.077 368.034 543.855 373.159C556.796 364.478 570.531 340.827 581.994 308.585ZM558.242 371.487C581.608 361.643 603.919 338.767 620.523 308.585H649.841C626.687 340.476 593.581 363.845 558.242 371.487ZM651.726 305.942H621.949C632.303 286.466 640.316 264.12 644.754 240.329H679.758C675.18 264.172 665.286 286.554 651.744 305.942H651.726ZM680.253 237.687H645.246C649.349 214.213 649.612 191.778 646.285 172.073H676.291C682.824 191.884 684.302 214.442 680.253 237.687Z" fill="currentColor" stroke="currentColor" stroke-width="2.81489"/>
    <path d="M810.21 378L821.363 313.47H677.963L684.735 272.84L844.068 99.1666H903.022L871.952 275.23H913.777L907.005 313.47H865.18L853.628 378H810.21ZM730.543 275.23H828.135L852.035 144.178L730.543 275.23Z" fill="currentColor"/>
  </symbol>
  <symbol id="users" viewBox="0 0 24 24" fill="none">
    <path d="M9.00903 10.75C6.66503 10.75 4.75903 8.843 4.75903 6.5C4.75903 4.157 6.66503 2.25 9.00903 2.25C11.353 2.25 13.259 4.157 13.259 6.5C13.259 8.843 11.353 10.75 9.00903 10.75ZM9.00903 3.75C7.49203 3.75 6.25903 4.983 6.25903 6.5C6.25903 8.017 7.49203 9.25 9.00903 9.25C10.526 9.25 11.759 8.017 11.759 6.5C11.759 4.983 10.525 3.75 9.00903 3.75ZM12.9969 21.75H5.00305C2.58305 21.75 1.25 20.425 1.25 18.019C1.25 15.358 2.756 12.25 7 12.25H11C15.244 12.25 16.75 15.357 16.75 18.019C16.75 20.425 15.4169 21.75 12.9969 21.75ZM7 13.75C3.057 13.75 2.75 17.017 2.75 18.019C2.75 19.583 3.42405 20.25 5.00305 20.25H12.9969C14.5759 20.25 15.25 19.583 15.25 18.019C15.25 17.018 14.943 13.75 11 13.75H7ZM16.5601 11.1899C15.6511 11.1899 14.797 10.8439 14.156 10.2159C13.86 9.92594 13.854 9.45103 14.144 9.15503C14.435 8.85903 14.91 8.85504 15.205 9.14404C15.564 9.49604 16.0461 9.68994 16.5601 9.68994C17.6651 9.68994 18.531 8.82497 18.531 7.71997C18.531 6.63397 17.6471 5.75 16.5601 5.75C16.2521 5.75 15.974 5.81301 15.733 5.93701C15.366 6.12701 14.913 5.98104 14.723 5.61304C14.533 5.24504 14.679 4.79303 15.047 4.60303C15.503 4.36903 16.0121 4.25 16.5601 4.25C18.4741 4.25 20.031 5.80697 20.031 7.71997C20.03 9.63297 18.4741 11.1899 16.5601 11.1899ZM19.66 19.75H18.98C18.566 19.75 18.23 19.414 18.23 19C18.23 18.586 18.566 18.25 18.98 18.25H19.66C20.805 18.25 21.25 17.8101 21.25 16.6801C21.25 15.9411 21.023 13.53 18.11 13.53H16.599C16.185 13.53 15.849 13.194 15.849 12.78C15.849 12.366 16.185 12.03 16.599 12.03H18.11C21.535 12.03 22.75 14.5351 22.75 16.6801C22.75 18.6311 21.624 19.75 19.66 19.75Z" fill="currentColor"/>
  </symbol>
  <symbol id="download" viewBox="0 0 24 24" fill="none">
    <path d="M5.31201 10.709C4.66101 10.094 5.09594 8.999 5.99194 9H8.41406V4C8.41406 3.448 8.86206 3 9.41406 3H15.4141C15.9661 3 16.4141 3.448 16.4141 4V9H19.0081C19.9041 9 20.339 10.094 19.688 10.709L13.4131 16.637C12.9011 17.121 12.0999 17.121 11.5869 16.637L5.31201 10.709ZM19.5 20.25H5.5C5.086 20.25 4.75 20.586 4.75 21C4.75 21.414 5.086 21.75 5.5 21.75H19.5C19.914 21.75 20.25 21.414 20.25 21C20.25 20.586 19.914 20.25 19.5 20.25Z" fill="currentColor"/>
  </symbol>
  <symbol id="blurred-value" viewBox="0 0 94 32" fill="none">
    <defs>
      <linearGradient id="blurred-value-gradient" x1="0" y1="15.25" x2="84.6538" y2="15.25" gradientUnits="userSpaceOnUse">
        <stop stop-color="#3A3B44"/>
        <stop offset="1" stop-color="#17171F"/>
      </linearGradient>
    </defs>
    <path d="M12.5273 13.335L19.1846 10.2334L21 14.4678L13.7979 16.9727L18.7607 22.5186L15.251 25.5L10.4092 19.2383L5.62793 25.5L2.17871 22.5186L7.1416 16.9131L0 14.4082L1.81543 10.1738L8.41211 13.2754L8.23047 6H12.709L12.5273 13.335ZM36.5273 13.335L43.1846 10.2334L45 14.4678L37.7979 16.9727L42.7607 22.5186L39.251 25.5L34.4092 19.2383L29.6279 25.5L26.1787 22.5186L31.1416 16.9131L24 14.4082L25.8154 10.1738L32.4121 13.2754L32.2305 6H36.709L36.5273 13.335ZM60.5273 13.335L67.1846 10.2334L69 14.4678L61.7979 16.9727L66.7607 22.5186L63.251 25.5L58.4092 19.2383L53.6279 25.5L50.1787 22.5186L55.1416 16.9131L48 14.4082L49.8154 10.1738L56.4121 13.2754L56.2305 6H60.709L60.5273 13.335ZM84.5273 13.335L91.1846 10.2334L93 14.4678L85.7979 16.9727L90.7607 22.5186L87.251 25.5L82.4092 19.2383L77.6279 25.5L74.1787 22.5186L79.1416 16.9131L72 14.4082L73.8154 10.1738L80.4121 13.2754L80.2305 6H84.709L84.5273 13.335Z" fill="url(#blurred-value-gradient)"/>
  </symbol>
  <symbol id="info" viewBox="0 0 16 16" fill="none">
    <path d="M8.00001 10.6663V7.99967M8.00001 5.33301H8.00668M14.6667 7.99967C14.6667 11.6816 11.6819 14.6663 8.00001 14.6663C4.31811 14.6663 1.33334 11.6816 1.33334 7.99967C1.33334 4.31778 4.31811 1.33301 8.00001 1.33301C11.6819 1.33301 14.6667 4.31778 14.6667 7.99967Z" stroke="currentColor" stroke-width="1.33333" stroke-linecap="round" stroke-linejoin="round"/>
  </symbol>
  <symbol id="ethereum-logo" viewBox="0 0 24 24">
    <rect width="24" height="24" rx="4" fill="#1A1A1A"/>
    <path d="M11.9611 16.1458L6.84717 13.125L11.9604 20.3333L17.0784 13.125L11.959 16.1458H11.9611ZM12.0388 3.66667L6.92356 12.1549L12.0381 15.1785L17.1527 12.1576L12.0388 3.66667Z" fill="#9899A3"/>
  </symbol>
  <symbol id="tag" viewBox="0 0 12 12" fill="currentColor">
    <path d="M11.3066 8.14001L8.1333 11.32C7.21997 12.2267 6.28004 12.2267 5.37337 11.32L4.83732 10.778C4.75932 10.7 4.75932 10.5733 4.83732 10.4953L10.488 4.84469C10.566 4.76669 10.6927 4.76669 10.7707 4.84469L11.306 5.38C12.2467 6.32 12.2133 7.22668 11.3066 8.14001ZM9.79867 4.15466L4.14803 9.80534C4.07003 9.88334 3.94332 9.88334 3.86532 9.80534L0.573324 6.51335C0.20599 6.14601 0 5.64865 0 5.12931V1.30001C0 0.582008 0.581967 0 1.29997 0H5.12467C5.64334 0 6.14067 0.20599 6.50667 0.573324L9.79867 3.87199C9.87667 3.94999 9.87667 4.07666 9.79867 4.15466ZM3.33333 2.66667C3.33333 2.29867 3.03597 2 2.66797 2H2.6613C2.29463 2 1.99935 2.29867 1.99935 2.66667C1.99935 3.03467 2.30065 3.33333 2.66732 3.33333C3.03598 3.33333 3.33333 3.03467 3.33333 2.66667Z"/>
  </symbol>
  <symbol id="apple-cta" viewBox="0 0 119.66407 40">
    <path d="M24.76888,20.30068a4.94881,4.94881,0,0,1,2.35656-4.15206,5.06566,5.06566,0,0,0-3.99116-2.15768c-1.67924-.17626-3.30719,1.00483-4.1629,1.00483-.87227,0-2.18977-.98733-3.6085-.95814a5.31529,5.31529,0,0,0-4.47292,2.72787c-1.934,3.34842-.49141,8.26947,1.3612,10.97608.9269,1.32535,2.01018,2.8058,3.42763,2.7533,1.38706-.05753,1.9051-.88448,3.5794-.88448,1.65876,0,2.14479.88448,3.591.8511,1.48838-.02416,2.42613-1.33124,3.32051-2.66914a10.962,10.962,0,0,0,1.51842-3.09251A4.78205,4.78205,0,0,1,24.76888,20.30068Z" fill="#fff"/>
    <path d="M22.03725,12.21089a4.87248,4.87248,0,0,0,1.11452-3.49062,4.95746,4.95746,0,0,0-3.20758,1.65961,4.63634,4.63634,0,0,0-1.14371,3.36139A4.09905,4.09905,0,0,0,22.03725,12.21089Z" fill="#fff"/>
    <path d="M42.30227,27.13965h-4.7334l-1.13672,3.35645H34.42727l4.4834-12.418h2.083l4.4834,12.418H43.438ZM38.0591,25.59082h3.752l-1.84961-5.44727h-.05176Z" fill="#fff"/>
    <path d="M55.15969,25.96973c0,2.81348-1.50586,4.62109-3.77832,4.62109a3.0693,3.0693,0,0,1-2.84863-1.584h-.043v4.48438h-1.8584V21.44238H48.4302v1.50586h.03418a3.21162,3.21162,0,0,1,2.88281-1.60059C53.645,21.34766,55.15969,23.16406,55.15969,25.96973Zm-1.91016,0c0-1.833-.94727-3.03809-2.39258-3.03809-1.41992,0-2.375,1.23047-2.375,3.03809,0,1.82422.95508,3.0459,2.375,3.0459C52.30227,29.01563,53.24953,27.81934,53.24953,25.96973Z" fill="#fff"/>
    <path d="M65.12453,25.96973c0,2.81348-1.50586,4.62109-3.77832,4.62109a3.0693,3.0693,0,0,1-2.84863-1.584h-.043v4.48438h-1.8584V21.44238H58.395v1.50586h.03418A3.21162,3.21162,0,0,1,61.312,21.34766C63.60988,21.34766,65.12453,23.16406,65.12453,25.96973Zm-1.91016,0c0-1.833-.94727-3.03809-2.39258-3.03809-1.41992,0-2.375,1.23047-2.375,3.03809,0,1.82422.95508,3.0459,2.375,3.0459C62.26711,29.01563,63.21438,27.81934,63.21438,25.96973Z" fill="#fff"/>
    <path d="M71.71047,27.03613c.1377,1.23145,1.334,2.04,2.96875,2.04,1.56641,0,2.69336-.80859,2.69336-1.91895,0-.96387-.67969-1.541-2.28906-1.93652l-1.60937-.3877c-2.28027-.55078-3.33887-1.61719-3.33887-3.34766,0-2.14258,1.86719-3.61426,4.51855-3.61426,2.624,0,4.42285,1.47168,4.4834,3.61426h-1.876c-.1123-1.23926-1.13672-1.9873-2.63379-1.9873s-2.52148.75684-2.52148,1.8584c0,.87793.6543,1.39453,2.25488,1.79l1.36816.33594c2.54785.60254,3.60645,1.626,3.60645,3.44238,0,2.32324-1.85059,3.77832-4.79395,3.77832-2.75391,0-4.61328-1.4209-4.7334-3.667Z" fill="#fff"/>
    <path d="M83.34621,19.2998v2.14258h1.72168v1.47168H83.34621v4.99121c0,.77539.34473,1.13672,1.10156,1.13672a5.80752,5.80752,0,0,0,.61133-.043v1.46289a5.10351,5.10351,0,0,1-1.03223.08594c-1.833,0-2.54785-.68848-2.54785-2.44434V22.91406H80.16262V21.44238H81.479V19.2998Z" fill="#fff"/>
    <path d="M86.065,25.96973c0-2.84863,1.67773-4.63867,4.29395-4.63867,2.625,0,4.29492,1.79,4.29492,4.63867,0,2.85645-1.66113,4.63867-4.29492,4.63867C87.72609,30.6084,86.065,28.82617,86.065,25.96973Zm6.69531,0c0-1.9541-.89551-3.10742-2.40137-3.10742s-2.40039,1.16211-2.40039,3.10742c0,1.96191.89453,3.10645,2.40039,3.10645S92.76027,27.93164,92.76027,25.96973Z" fill="#fff"/>
    <path d="M96.18606,21.44238h1.77246v1.541h.043a2.1594,2.1594,0,0,1,2.17773-1.63574,2.86616,2.86616,0,0,1,.63672.06934v1.73828a2.59794,2.59794,0,0,0-.835-.1123,1.87264,1.87264,0,0,0-1.93652,2.083v5.37012h-1.8584Z" fill="#fff"/>
    <path d="M109.3843,27.83691c-.25,1.64355-1.85059,2.77148-3.89844,2.77148-2.63379,0-4.26855-1.76465-4.26855-4.5957,0-2.83984,1.64355-4.68164,4.19043-4.68164,2.50488,0,4.08008,1.7207,4.08008,4.46582v.63672h-6.39453v.1123a2.358,2.358,0,0,0,2.43555,2.56445,2.04834,2.04834,0,0,0,2.09082-1.27344Zm-6.28223-2.70215h4.52637a2.1773,2.1773,0,0,0-2.2207-2.29785A2.292,2.292,0,0,0,103.10207,25.13477Z" fill="#fff"/>
    <path d="M37.82619,8.731a2.63964,2.63964,0,0,1,2.80762,2.96484c0,1.90625-1.03027,3.002-2.80762,3.002H35.67092V8.731Zm-1.22852,5.123h1.125a1.87588,1.87588,0,0,0,1.96777-2.146,1.881,1.881,0,0,0-1.96777-2.13379h-1.125Z" fill="#fff"/>
    <path d="M41.68068,12.44434a2.13323,2.13323,0,1,1,4.24707,0,2.13358,2.13358,0,1,1-4.24707,0Zm3.333,0c0-.97607-.43848-1.54687-1.208-1.54687-.77246,0-1.207.5708-1.207,1.54688,0,.98389.43457,1.55029,1.207,1.55029C44.57522,13.99463,45.01369,13.42432,45.01369,12.44434Z" fill="#fff"/>
    <path d="M51.57326,14.69775h-.92187l-.93066-3.31641h-.07031l-.92676,3.31641h-.91309l-1.24121-4.50293h.90137l.80664,3.436h.06641l.92578-3.436h.85254l.92578,3.436h.07031l.80273-3.436h.88867Z" fill="#fff"/>
    <path d="M53.85354,10.19482H54.709v.71533h.06641a1.348,1.348,0,0,1,1.34375-.80225,1.46456,1.46456,0,0,1,1.55859,1.6748v2.915h-.88867V12.00586c0-.72363-.31445-1.0835-.97168-1.0835a1.03294,1.03294,0,0,0-1.0752,1.14111v2.63428h-.88867Z" fill="#fff"/>
    <path d="M59.09377,8.437h.88867v6.26074h-.88867Z" fill="#fff"/>
    <path d="M61.21779,12.44434a2.13346,2.13346,0,1,1,4.24756,0,2.1338,2.1338,0,1,1-4.24756,0Zm3.333,0c0-.97607-.43848-1.54687-1.208-1.54687-.77246,0-1.207.5708-1.207,1.54688,0,.98389.43457,1.55029,1.207,1.55029C64.11232,13.99463,64.5508,13.42432,64.5508,12.44434Z" fill="#fff"/>
    <path d="M66.4009,13.42432c0-.81055.60352-1.27783,1.6748-1.34424l1.21973-.07031v-.38867c0-.47559-.31445-.74414-.92187-.74414-.49609,0-.83984.18213-.93848.50049h-.86035c.09082-.77344.81836-1.26953,1.83984-1.26953,1.12891,0,1.76563.562,1.76563,1.51318v3.07666h-.85547v-.63281h-.07031a1.515,1.515,0,0,1-1.35254.707A1.36026,1.36026,0,0,1,66.4009,13.42432Zm2.89453-.38477v-.37646l-1.09961.07031c-.62012.0415-.90137.25244-.90137.64941,0,.40527.35156.64111.835.64111A1.0615,1.0615,0,0,0,69.29543,13.03955Z" fill="#fff"/>
    <path d="M71.34816,12.44434c0-1.42285.73145-2.32422,1.86914-2.32422a1.484,1.484,0,0,1,1.38086.79h.06641V8.437h.88867v6.26074h-.85156v-.71143h-.07031a1.56284,1.56284,0,0,1-1.41406.78564C72.0718,14.772,71.34816,13.87061,71.34816,12.44434Zm.918,0c0,.95508.4502,1.52979,1.20313,1.52979.749,0,1.21191-.583,1.21191-1.52588,0-.93848-.46777-1.52979-1.21191-1.52979C72.72121,10.91846,72.26613,11.49707,72.26613,12.44434Z" fill="#fff"/>
    <path d="M79.23,12.44434a2.13323,2.13323,0,1,1,4.24707,0,2.13358,2.13358,0,1,1-4.24707,0Zm3.333,0c0-.97607-.43848-1.54687-1.208-1.54687-.77246,0-1.207.5708-1.207,1.54688,0,.98389.43457,1.55029,1.207,1.55029C82.12453,13.99463,82.563,13.42432,82.563,12.44434Z" fill="#fff"/>
    <path d="M84.66945,10.19482h.85547v.71533h.06641a1.348,1.348,0,0,1,1.34375-.80225,1.46456,1.46456,0,0,1,1.55859,1.6748v2.915H87.605V12.00586c0-.72363-.31445-1.0835-.97168-1.0835a1.03294,1.03294,0,0,0-1.0752,1.14111v2.63428h-.88867Z" fill="#fff"/>
    <path d="M93.51516,9.07373v1.1416h.97559v.74854h-.97559V13.2793c0,.47168.19434.67822.63672.67822a2.96657,2.96657,0,0,0,.33887-.02051v.74023a2.9155,2.9155,0,0,1-.4834.04541c-.98828,0-1.38184-.34766-1.38184-1.21582v-2.543h-.71484v-.74854h.71484V9.07373Z" fill="#fff"/>
    <path d="M95.70461,8.437h.88086v2.48145h.07031a1.3856,1.3856,0,0,1,1.373-.80664,1.48339,1.48339,0,0,1,1.55078,1.67871v2.90723H98.69v-2.688c0-.71924-.335-1.0835-.96289-1.0835a1.05194,1.05194,0,0,0-1.13379,1.1416v2.62988h-.88867Z" fill="#fff"/>
    <path d="M104.76125,13.48193a1.828,1.828,0,0,1-1.95117,1.30273A2.04531,2.04531,0,0,1,100.73,12.46045a2.07685,2.07685,0,0,1,2.07617-2.35254c1.25293,0,2.00879.856,2.00879,2.27V12.688h-3.17969v.0498a1.1902,1.1902,0,0,0,1.19922,1.29,1.07934,1.07934,0,0,0,1.07129-.5459Zm-3.126-1.45117h2.27441a1.08647,1.08647,0,0,0-1.1084-1.1665A1.15162,1.15162,0,0,0,101.63527,12.03076Z" fill="#fff"/>
  </symbol>
  <symbol id="google-cta" viewBox="0 0 238.96 70.87">
    <path fill="#fff" stroke="#fff" stroke-miterlimit="10" stroke-width=".2" d="M83.9,18.15c0,1.48-.44,2.67-1.32,3.55-1,1.05-2.3,1.57-3.9,1.57s-2.84-.53-3.91-1.59c-1.07-1.06-1.61-2.38-1.61-3.96s.54-2.89,1.61-3.96c1.07-1.06,2.38-1.6,3.91-1.6.76,0,1.49.15,2.18.44.69.3,1.25.69,1.66,1.19l-.93.94c-.7-.84-1.67-1.26-2.91-1.26-1.12,0-2.09.39-2.9,1.18s-1.22,1.81-1.22,3.06.41,2.28,1.22,3.06c.82.79,1.78,1.18,2.9,1.18,1.19,0,2.18-.4,2.97-1.19.51-.52.81-1.23.89-2.15h-3.86v-1.28h5.15c.05.28.07.54.07.8Z"/>
    <path fill="#fff" stroke="#fff" stroke-miterlimit="10" stroke-width=".2" d="M92.07,13.71h-4.84v3.37h4.37v1.28h-4.37v3.37h4.84v1.31h-6.21v-10.63h6.21v1.31h0Z"/>
    <path fill="#fff" stroke="#fff" stroke-miterlimit="10" stroke-width=".2" d="M97.83,23.03h-1.37v-9.32h-2.97v-1.31h7.3v1.31h-2.97s0,9.32,0,9.32Z"/>
    <path fill="#fff" stroke="#fff" stroke-miterlimit="10" stroke-width=".2" d="M106.08,23.03v-10.63h1.36v10.63h-1.36Z"/>
    <path fill="#fff" stroke="#fff" stroke-miterlimit="10" stroke-width=".2" d="M113.51,23.03h-1.37v-9.32h-2.97v-1.31h7.3v1.31h-2.97s0,9.32,0,9.32Z"/>
    <path fill="#fff" stroke="#fff" stroke-miterlimit="10" stroke-width=".2" d="M130.3,21.66c-1.05,1.08-2.34,1.61-3.9,1.61s-2.85-.54-3.9-1.61c-1.05-1.07-1.57-2.39-1.57-3.94s.52-2.87,1.57-3.94c1.04-1.08,2.34-1.61,3.9-1.61s2.84.54,3.89,1.62c1.05,1.08,1.57,2.39,1.57,3.93s-.52,2.87-1.57,3.94ZM123.52,20.77c.79.8,1.75,1.19,2.89,1.19s2.1-.4,2.89-1.19c.79-.8,1.18-1.81,1.18-3.05s-.4-2.26-1.18-3.05c-.78-.8-1.75-1.19-2.89-1.19s-2.1.4-2.89,1.19c-.78.8-1.18,1.81-1.18,3.05s.4,2.26,1.18,3.05Z"/>
    <path fill="#fff" stroke="#fff" stroke-miterlimit="10" stroke-width=".2" d="M133.79,23.03v-10.63h1.66l5.17,8.27h.06l-.06-2.05v-6.22h1.37v10.63h-1.43l-5.41-8.67h-.06l.06,2.05v6.62h-1.37,0Z"/>
    <path fill="#fff" d="M120.61,38.54c-4.17,0-7.56,3.17-7.56,7.53s3.4,7.53,7.56,7.53,7.56-3.2,7.56-7.53-3.4-7.53-7.56-7.53ZM120.61,50.64c-2.28,0-4.25-1.88-4.25-4.57s1.97-4.57,4.25-4.57,4.25,1.85,4.25,4.57-1.97,4.57-4.25,4.57ZM104.11,38.54c-4.17,0-7.56,3.17-7.56,7.53s3.4,7.53,7.56,7.53,7.56-3.2,7.56-7.53-3.4-7.53-7.56-7.53ZM104.11,50.64c-2.28,0-4.25-1.88-4.25-4.57s1.97-4.57,4.25-4.57,4.25,1.85,4.25,4.57-1.97,4.57-4.25,4.57ZM84.48,40.85v3.2h7.65c-.23,1.8-.83,3.11-1.74,4.03-1.11,1.11-2.85,2.34-5.91,2.34-4.71,0-8.39-3.8-8.39-8.51s3.68-8.51,8.39-8.51c2.54,0,4.4,1,5.76,2.28l2.26-2.26c-1.91-1.83-4.45-3.22-8.02-3.22-6.45,0-11.87,5.25-11.87,11.7s5.42,11.7,11.87,11.7c3.48,0,6.11-1.14,8.16-3.28,2.11-2.11,2.77-5.08,2.77-7.48,0-.74-.06-1.43-.17-2h-10.76,0ZM164.75,43.33c-.63-1.68-2.54-4.8-6.45-4.8s-7.11,3.05-7.11,7.53c0,4.22,3.2,7.53,7.48,7.53,3.45,0,5.45-2.11,6.28-3.34l-2.57-1.71c-.86,1.26-2.03,2.08-3.71,2.08s-2.88-.77-3.65-2.28l10.08-4.17-.34-.86h0ZM154.47,45.84c-.09-2.91,2.26-4.4,3.94-4.4,1.31,0,2.43.66,2.8,1.6l-6.74,2.8ZM146.28,53.15h3.31v-22.15h-3.31v22.15ZM140.86,40.22h-.11c-.74-.88-2.17-1.68-3.97-1.68-3.77,0-7.22,3.31-7.22,7.56s3.45,7.51,7.22,7.51c1.8,0,3.22-.8,3.97-1.71h.11v1.08c0,2.88-1.54,4.42-4.03,4.42-2.03,0-3.28-1.46-3.8-2.68l-2.88,1.2c.83,2,3.03,4.45,6.68,4.45,3.88,0,7.16-2.28,7.16-7.85v-13.53h-3.14v1.23ZM137.06,50.64c-2.28,0-4.2-1.91-4.2-4.54s1.91-4.6,4.2-4.6,4.03,1.94,4.03,4.6-1.77,4.54-4.03,4.54ZM180.26,31h-7.92v22.15h3.31v-8.39h4.62c3.66,0,7.27-2.65,7.27-6.88s-3.6-6.88-7.27-6.88ZM180.34,41.68h-4.7v-7.59h4.7c2.47,0,3.87,2.05,3.87,3.8s-1.4,3.8-3.87,3.8h0ZM200.77,38.5c-2.39,0-4.87,1.05-5.9,3.39l2.94,1.23c.63-1.23,1.79-1.62,3.02-1.62,1.71,0,3.45,1.03,3.48,2.85v.23c-.6-.34-1.88-.86-3.45-.86-3.16,0-6.38,1.74-6.38,4.99,0,2.96,2.59,4.87,5.5,4.87,2.22,0,3.45-1,4.22-2.16h.11v1.71h3.19v-8.49c0-3.93-2.94-6.13-6.73-6.13h0ZM200.38,50.63c-1.08,0-2.59-.54-2.59-1.88,0-1.71,1.88-2.37,3.5-2.37,1.45,0,2.14.31,3.02.74-.26,2.05-2.02,3.5-3.93,3.5ZM219.12,38.98l-3.79,9.6h-.11l-3.93-9.6h-3.56l5.9,13.42-3.36,7.47h3.45l9.09-20.89h-3.68ZM189.35,53.15h3.31v-22.15h-3.31v22.15Z"/>
    <path fill="#ea4335" d="M36.6,34.41l-18.86,20.02s0,0,0,.01c.58,2.17,2.56,3.77,4.92,3.77.94,0,1.83-.26,2.58-.7l.06-.04,21.23-12.25-9.94-10.82Z"/>
    <path fill="#fbbc04" d="M55.68,31h-.02s-9.17-5.33-9.17-5.33l-10.33,9.19,10.36,10.36,9.12-5.26c1.6-.86,2.68-2.55,2.68-4.49s-1.07-3.61-2.65-4.47h0Z"/>
    <path fill="#4285f4" d="M17.73,16.44c-.11.42-.17.86-.17,1.31v35.38c0,.45.06.89.17,1.31l19.51-19.51-19.51-18.49Z"/>
    <path fill="#34a853" d="M36.74,35.43l9.76-9.76-21.21-12.3c-.77-.46-1.67-.73-2.63-.73-2.36,0-4.34,1.6-4.92,3.78h0s19,19,19,19h0Z"/>
  </symbol>
  <symbol id="chat-bubble-tip" viewBox="0 0 17 18">
    <path fill-rule="evenodd" clip-rule="evenodd" d="M15.1902 6.9458C14.2002 6.9458 13.5502 6.6358 12.2202 5.7058C11.5102 5.2058 8.77024 3.1058 6.50023 1.8558C4.54023 0.775801 2.86023 0.0358009 2.44023 0.00580025C1.18023 -0.0942001 1.02024 1.0958 1.51023 1.7358C2.00023 2.3758 2.56023 3.2058 2.78023 3.6558C3.26023 4.6658 3.41023 5.1958 3.41023 6.7058C3.41023 8.5658 2.09023 9.9458 1.05023 10.8658C0.960236 10.9458 0.840233 11.0458 0.700233 11.1558C0.460234 11.3458 0.230234 11.5358 0.000234604 11.7258V17.9458H16.9902V6.9458H15.1902Z" fill="currentColor"/>
  </symbol>
  <symbol id="time-past" viewBox="0 0 20 20" fill="none">
    <path d="M10.8336 6.66699V9.65527L12.2562 11.0778C12.582 11.4036 12.582 11.9304 12.2562 12.2562C12.0937 12.4187 11.8803 12.5003 11.667 12.5003C11.4536 12.5003 11.2403 12.4187 11.0778 12.2562L9.41112 10.5895C9.25445 10.4329 9.16698 10.2212 9.16698 10.0003V6.66699C9.16698 6.20699 9.53948 5.83366 10.0003 5.83366C10.4611 5.83366 10.8336 6.20699 10.8336 6.66699ZM10.0219 1.66699C7.79688 1.66699 5.70781 2.56527 4.16698 4.1086V2.50033C4.16698 2.04033 3.79448 1.66699 3.33365 1.66699C2.87281 1.66699 2.50031 2.04033 2.50031 2.50033V5.83366C2.50031 6.29366 2.87281 6.66699 3.33365 6.66699H6.66698C7.12781 6.66699 7.50031 6.29366 7.50031 5.83366C7.50031 5.37366 7.12781 5.00033 6.66698 5.00033H5.63447C6.8328 3.93949 8.38354 3.33366 10.0219 3.33366C13.6852 3.33366 16.667 6.32449 16.667 10.0003C16.667 13.6762 13.686 16.667 10.0219 16.667C7.47605 16.667 5.20029 15.2495 4.08112 12.967C3.87946 12.5537 3.38038 12.382 2.96621 12.5854C2.55288 12.7879 2.38285 13.2869 2.58535 13.7003C3.98619 16.5586 6.83604 18.3337 10.0219 18.3337C14.6044 18.3337 18.3336 14.5953 18.3336 10.0003C18.3336 5.40533 14.6044 1.66699 10.0219 1.66699Z" fill="currentColor"/>
  </symbol>
</svg>
